<svg version="1.1" id="Layer_1" xmlns="http://www.w3.org/2000/svg" xmlns:xlink="http://www.w3.org/1999/xlink" x="0px" y="0px"
	 width="100%" viewBox="0 0 2000 480" enable-background="new 0 0 2000 480" xml:space="preserve">
<path fill="#000000" opacity="1.000000" stroke="none" 
	d="
M1338.000000,481.000000 
	C893.500000,481.000000 449.500000,480.994476 5.500021,481.092926 
	C1.750952,481.093750 0.903457,480.249359 0.906072,476.499939 
	C1.015572,319.500000 1.015572,162.499985 0.906072,5.500065 
	C0.903457,1.750642 1.751001,0.906735 5.500013,0.907280 
	C669.166687,1.003704 1332.833374,1.003704 1996.500000,0.907280 
	C2000.249023,0.906735 2001.096558,1.750641 2001.093994,5.500065 
	C2000.984497,162.499985 2000.984375,319.500000 2001.093872,476.499939 
	C2001.096558,480.249359 2000.249268,481.095306 1996.500000,481.093506 
	C1777.166626,480.988861 1557.833374,481.000000 1338.000000,481.000000 
z"/>
<path fill="#818285" opacity="1.000000" stroke="none" 
	d="
M487.758484,318.772034 
	C500.067383,318.981842 512.080444,318.438202 524.019775,319.142487 
	C535.237305,319.804230 546.254517,322.002167 554.514221,330.941895 
	C559.688538,336.542114 562.102722,343.359985 562.941772,350.637482 
	C565.156494,369.845734 555.792908,382.922852 539.850830,392.021332 
	C529.129211,398.140411 517.392090,400.875305 505.119965,402.165527 
	C498.675964,402.843018 492.289917,402.835297 485.401245,402.918457 
	C483.513977,402.161194 481.976410,402.691406 480.199921,402.227234 
	C466.337738,401.783264 453.784119,398.931580 443.529541,389.163635 
	C439.715332,385.530426 438.390900,380.764435 437.181976,376.210266 
	C434.063751,364.463776 440.618774,348.692688 450.687408,341.969116 
	C455.708130,338.616394 455.376312,338.940521 451.165558,334.630096 
	C444.852203,328.167328 442.628052,320.086334 444.311340,311.195190 
	C445.840668,303.117218 449.612854,296.349670 456.714783,291.668884 
	C458.429321,290.538818 459.744568,289.530823 456.776337,287.101593 
	C440.227051,273.557648 438.074097,252.198547 445.702271,234.946228 
	C451.893890,220.942841 464.350677,213.526291 478.922852,210.086121 
	C484.917603,208.670868 491.084320,207.661789 497.391052,207.953796 
	C510.270996,208.550156 522.529907,211.154358 533.191101,218.788071 
	C535.976440,220.782455 537.649231,220.880280 540.145142,218.379242 
	C545.657654,212.855270 552.622620,210.371689 560.367981,210.006790 
	C561.199158,209.967621 562.140198,210.246307 562.849426,209.947891 
	C568.657837,207.503906 568.948853,211.320541 568.986206,215.322678 
	C569.045288,221.651978 568.968689,227.982651 569.041870,234.311661 
	C569.079285,237.549332 567.910156,239.176422 564.385193,239.045288 
	C559.235107,238.853668 554.072632,238.995987 548.531128,238.995987 
	C553.388428,254.228317 552.189087,268.718781 542.211670,281.060303 
	C532.347107,293.262238 518.740173,298.882629 502.531586,299.010193 
	C498.675385,300.008514 495.197021,299.317383 491.327576,299.233215 
	C487.497101,298.654022 484.116089,299.281525 480.629395,298.194763 
	C476.299438,296.845215 473.441772,299.675964 471.462280,306.149536 
	C470.127045,310.516022 472.098053,315.523804 476.088196,316.815125 
	C477.714447,317.341431 479.342377,318.519165 481.660522,318.066376 
	C483.801727,318.887634 485.651703,318.282288 487.758484,318.772034 
z"/>
<path fill="#808185" opacity="1.000000" stroke="none" 
	d="
M1127.709229,209.761169 
	C1128.281982,209.977463 1128.448608,209.988068 1128.615112,209.985138 
	C1143.098389,209.730728 1139.546631,211.210892 1142.006470,222.273590 
	C1142.389404,223.995880 1142.831421,225.705032 1143.372070,227.940613 
	C1147.345581,223.419891 1150.909546,219.014435 1155.661865,215.703232 
	C1162.263184,211.103668 1169.475952,208.498047 1177.388184,208.060455 
	C1185.585571,207.607086 1193.562988,208.393997 1201.421021,211.568283 
	C1211.286255,215.553345 1217.314575,222.716583 1220.934570,232.217224 
	C1223.923706,240.062271 1224.930420,248.364304 1224.962402,256.709747 
	C1225.064941,283.371185 1224.933472,310.033600 1225.081299,336.694611 
	C1225.100342,340.110321 1224.286499,340.811462 1220.810059,341.197235 
	C1214.534302,341.893677 1208.282471,341.744659 1202.027344,342.076965 
	C1198.168457,342.282043 1194.638428,340.614960 1190.748413,340.905273 
	C1187.611328,341.139404 1189.079468,338.179016 1189.073730,336.738556 
	C1188.973145,311.743530 1189.212524,286.745026 1188.870605,261.754242 
	C1188.769043,254.333542 1187.192871,246.842117 1180.404541,242.047012 
	C1172.036621,236.136063 1156.108521,239.957825 1151.061890,249.065063 
	C1147.948364,254.683701 1145.740356,260.610779 1145.905029,267.633789 
	C1145.062744,274.358185 1145.568481,280.668030 1145.527832,286.964172 
	C1145.415161,304.407227 1145.563354,321.851257 1145.246582,339.737671 
	C1135.421631,342.471436 1125.791992,341.957367 1115.974976,341.430969 
	C1109.165527,341.065826 1109.959839,337.792999 1109.966553,333.471558 
	C1110.026978,295.063049 1110.001709,256.654419 1110.001953,218.245819 
	C1110.002075,209.999084 1110.002930,209.999207 1118.520264,210.001144 
	C1119.351562,210.001328 1120.182983,209.998810 1121.464600,209.989273 
	C1123.649048,209.065521 1125.503662,209.651215 1127.709229,209.761169 
z"/>
<path fill="#818285" opacity="1.000000" stroke="none" 
	d="
M1078.023193,241.142365 
	C1081.921509,250.784348 1084.082642,260.384674 1084.007080,270.462524 
	C1083.928345,280.962006 1084.286743,291.384583 1081.138794,301.724548 
	C1074.905640,322.197845 1059.986938,338.381226 1037.892578,341.922516 
	C1025.173950,343.961121 1012.257324,344.456848 999.838867,340.383972 
	C978.369263,333.342621 966.839783,317.497223 961.970215,296.045654 
	C960.095032,287.785278 959.572327,279.444397 960.040466,271.057556 
	C961.088806,252.275879 966.300659,235.037903 980.629089,221.924973 
	C988.306335,214.899033 997.757629,210.784485 1008.033081,209.048889 
	C1019.964600,207.033554 1031.815308,207.420578 1043.527588,210.937469 
	C1056.622192,214.869415 1066.845459,222.444611 1074.056641,234.060532 
	C1075.423340,236.262070 1076.702026,238.518250 1078.023193,241.142365 
z"/>
<path fill="#808185" opacity="1.000000" stroke="none" 
	d="
M674.128479,288.529205 
	C679.861206,272.150665 691.968628,263.995728 707.700256,259.945496 
	C718.765198,257.096741 729.990784,258.267334 741.164612,258.014709 
	C746.060608,257.904022 746.897156,256.937317 745.926208,252.128693 
	C744.068237,242.927185 738.599976,238.821365 728.701660,236.917587 
	C716.329773,234.538040 704.609131,236.985001 692.970459,240.264618 
	C689.685486,241.190247 688.522400,240.457428 687.292603,237.881638 
	C684.175171,231.352432 683.143127,224.298721 681.915161,217.284012 
	C681.556396,215.234894 683.095520,214.522400 684.400024,214.213242 
	C693.234253,212.119553 702.000305,209.873932 711.096802,208.795227 
	C718.060852,207.969376 724.998535,207.670090 731.861511,208.126999 
	C745.377075,209.026794 758.180664,212.470139 768.081604,222.605698 
	C774.181763,228.850433 777.186401,236.666245 779.054932,245.081238 
	C780.402954,251.152039 779.954712,257.242340 779.972351,263.329132 
	C780.037903,285.980133 779.945251,308.631714 780.054626,331.282379 
	C780.071350,334.750519 779.162415,336.002838 775.488892,337.239136 
	C756.363403,343.675781 736.643921,343.894867 716.994629,342.802094 
	C701.891541,341.962158 687.683899,337.229095 678.972229,323.374969 
	C673.035828,313.934265 671.671143,303.384735 673.804443,292.410370 
	C674.024048,291.280701 673.939270,290.091858 674.128479,288.529205 
z"/>
<path fill="#FCC60C" opacity="1.000000" stroke="none" 
	d="
M1768.365479,208.853470 
	C1767.351196,210.058594 1766.515015,210.958359 1765.418213,212.022964 
	C1761.709106,214.030457 1759.883667,211.330856 1757.965576,209.429810 
	C1744.374756,195.959915 1730.821655,182.451569 1717.333740,168.878342 
	C1710.882935,162.386734 1704.090576,156.204376 1698.001343,149.393433 
	C1692.481812,143.219757 1686.309082,139.210129 1677.562744,139.762466 
	C1678.455933,141.162598 1679.854980,142.252075 1681.066162,143.468689 
	C1704.661987,167.171036 1728.371338,190.760040 1751.977295,214.452209 
	C1753.607666,216.088547 1755.511353,217.528778 1756.442261,220.172394 
	C1756.524292,220.763992 1756.510864,221.005936 1756.312744,221.560852 
	C1754.979370,222.861664 1753.830933,223.849518 1752.385132,224.977692 
	C1748.548462,226.303421 1746.930176,223.435379 1745.038696,221.553452 
	C1724.257080,200.877075 1703.546387,180.129333 1682.822021,159.395462 
	C1677.169922,153.740723 1671.427979,148.172302 1665.883179,142.415207 
	C1662.770630,139.183411 1659.573486,136.929794 1654.758057,136.731201 
	C1651.768555,136.607925 1648.354736,136.607559 1645.439453,134.186920 
	C1623.673462,111.931618 1601.648193,90.440567 1580.055176,68.519676 
	C1577.910767,66.342804 1575.087769,64.281960 1576.739258,60.170151 
	C1580.714600,57.066494 1584.895996,55.899960 1589.631104,55.949345 
	C1603.107788,56.089901 1616.634277,56.703300 1630.052246,55.804035 
	C1644.268066,54.851299 1655.069946,61.406002 1665.646118,69.184357 
	C1671.876587,73.766594 1677.326904,79.168510 1681.697266,86.004326 
	C1688.411011,87.209145 1691.368042,92.810776 1695.375610,96.756035 
	C1706.022583,107.236969 1716.661011,117.738602 1727.035645,128.494995 
	C1729.146362,130.683456 1732.158447,131.620193 1734.257324,134.303345 
	C1734.872681,135.806458 1734.756104,137.143051 1733.950317,137.923859 
	C1730.023926,141.728760 1732.621216,144.162476 1735.418213,146.933640 
	C1749.484985,160.870331 1763.465088,174.894440 1777.432739,188.930511 
	C1779.254150,190.760757 1781.681030,192.335602 1781.286377,195.797607 
	C1780.113647,197.241455 1779.084473,198.367416 1777.963867,199.810822 
	C1777.657104,200.248489 1777.441772,200.368698 1776.858398,200.504364 
	C1773.850586,199.961853 1772.311768,197.882385 1770.564453,196.140793 
	C1755.361084,180.985184 1740.030518,165.949951 1725.150146,150.482132 
	C1720.646606,145.800583 1715.704468,143.489838 1709.501953,143.183762 
	C1707.664185,143.093079 1705.840454,143.008774 1703.893555,141.978424 
	C1703.338257,141.736633 1703.158447,141.552139 1703.091064,141.293961 
	C1703.014893,141.001236 1702.992065,141.082001 1703.255859,141.688141 
	C1705.966187,142.604263 1707.811157,144.227005 1709.596313,146.019348 
	C1727.906494,164.401947 1746.273438,182.728104 1764.587769,201.106415 
	C1766.600464,203.126038 1769.530151,204.851318 1768.365479,208.853470 
z"/>
<path fill="#F38121" opacity="1.000000" stroke="none" 
	d="
M422.213684,232.855896 
	C422.633972,236.925232 421.347870,238.306168 417.307800,238.103653 
	C410.002716,237.737503 402.665833,238.040283 395.342926,237.977554 
	C392.930756,237.956894 391.854340,238.373871 391.494324,241.358505 
	C390.536316,249.300217 391.005035,257.224976 391.086121,265.137207 
	C391.197845,276.042175 390.311310,286.950928 391.919647,297.866333 
	C393.716400,310.060577 401.879364,315.846283 414.079742,313.341888 
	C416.452515,312.854858 418.886353,313.200073 421.271057,312.119934 
	C422.982910,311.344574 424.488403,312.354156 425.108917,314.742889 
	C426.895874,321.621735 427.486816,328.520081 427.264832,335.624664 
	C427.125244,340.090607 424.400848,339.731659 421.449127,340.328918 
	C408.063660,343.037292 394.807220,342.983673 381.682190,339.006622 
	C365.637207,334.144806 357.152985,320.764099 356.989624,305.603088 
	C356.073700,303.767639 356.706085,302.181152 356.306915,300.346252 
	C356.103973,280.849182 355.939972,261.702942 356.095734,242.559280 
	C356.126312,238.801895 355.159363,237.464050 351.414520,237.945358 
	C349.121246,238.240128 346.757263,238.060181 344.428741,237.982224 
	C342.521362,237.918365 340.073090,238.753128 339.137604,236.357727 
	C338.327972,234.284546 338.909088,231.790527 340.338928,230.292084 
	C343.294617,227.194534 345.578430,223.633286 348.178589,220.293930 
	C357.467773,208.363892 366.699707,196.387924 376.120789,184.562790 
	C378.658752,181.377182 381.397644,178.363358 383.582947,174.902405 
	C385.107513,172.487885 387.734497,172.456802 389.812286,173.202850 
	C391.734955,173.893204 391.158478,176.146362 391.149780,178.078415 
	C391.106415,187.691452 390.805542,197.301529 391.286194,206.930450 
	C391.474274,210.698624 392.715942,211.099426 395.746033,211.044022 
	C403.069977,210.910080 410.399689,211.090347 417.723602,210.955185 
	C420.564087,210.902740 421.902039,211.157730 422.228760,214.767776 
	C422.599731,218.866898 423.008942,222.943573 422.912842,227.517883 
	C422.155670,229.438278 422.705200,231.022614 422.213684,232.855896 
z"/>
<path fill="#808185" opacity="1.000000" stroke="none" 
	d="
M855.015991,211.001633 
	C860.343994,211.002655 865.178650,211.097153 870.007446,210.970428 
	C873.010254,210.891617 873.820129,212.103134 874.119324,215.083084 
	C874.726685,221.131241 874.272278,227.101807 874.121948,233.120697 
	C874.030151,236.796021 873.053711,238.167664 869.297974,238.060410 
	C861.805969,237.846481 854.298706,238.152954 846.807434,237.925552 
	C843.625427,237.828979 842.916748,238.944717 842.938477,241.923798 
	C843.063354,259.085419 842.715881,276.255829 843.163879,293.406647 
	C843.307434,298.904755 844.065186,304.641388 848.632690,309.124786 
	C853.407776,313.811981 859.118835,314.266357 865.001770,313.711334 
	C866.857117,313.536316 869.129700,313.679077 870.727112,312.826141 
	C875.792175,310.121704 876.819580,313.805511 877.658997,317.095703 
	C879.344604,323.703156 879.200623,330.513062 878.960876,337.271515 
	C878.787170,342.168121 873.941528,340.488861 871.977356,340.735565 
	C858.142822,342.472992 844.200867,343.463104 830.761658,338.067535 
	C817.553894,332.764923 810.903503,323.895294 809.172241,310.431335 
	C806.305298,288.135712 808.466553,265.632629 808.108521,243.222443 
	C808.044861,239.237411 807.344788,237.363144 802.987976,237.934525 
	C800.367065,238.278290 797.655090,238.127960 795.002136,237.942169 
	C793.686768,237.850067 791.585938,238.990662 791.165771,237.016129 
	C790.735718,234.995010 789.856812,232.891327 791.651733,230.647690 
	C805.466980,213.378113 819.124451,195.982422 832.855103,178.644989 
	C833.963989,177.244827 834.597961,175.574631 836.009338,174.303009 
	C837.772034,172.714783 839.718933,172.760605 841.604553,173.143204 
	C844.038696,173.637115 842.926208,175.872131 842.942261,177.300919 
	C843.049377,186.797424 843.200500,196.302048 842.903320,205.790451 
	C842.776794,209.831360 843.705383,211.673370 848.029419,211.054184 
	C850.151917,210.750229 852.354065,211.001587 855.015991,211.001633 
z"/>
<path fill="#808185" opacity="1.000000" stroke="none" 
	d="
M663.233521,227.675369 
	C662.525635,231.984360 663.773010,235.932373 662.214355,239.840103 
	C661.497192,241.638153 661.277527,241.603180 659.321045,241.377182 
	C649.371460,240.227951 639.436829,241.038101 631.367126,247.511459 
	C625.345032,252.342255 622.837097,259.571594 622.031189,267.272339 
	C619.759094,288.982330 621.519043,310.752838 621.034607,332.490082 
	C620.821350,342.059906 620.997742,342.119904 611.053223,341.991394 
	C602.971863,341.886932 594.849365,342.632629 586.395935,340.902344 
	C585.366394,339.937378 585.505066,338.916473 585.505737,337.928345 
	C585.535278,295.974365 585.427124,254.020355 585.757629,211.613861 
	C595.071899,208.563141 604.196899,209.087540 613.340149,211.000931 
	C615.339355,211.419296 615.713989,212.919724 616.015930,214.544403 
	C616.863953,219.107635 618.303467,223.566437 618.093628,229.343216 
	C622.632568,223.801117 626.650818,219.216721 631.741333,215.640869 
	C638.957214,210.572006 646.745483,208.575760 655.428467,209.941223 
	C655.754517,209.992523 656.102173,210.039764 656.421082,209.983307 
	C662.227295,208.955795 663.764343,211.908798 663.015686,217.450043 
	C664.014832,220.967499 663.307800,224.128311 663.233521,227.675369 
z"/>
<path fill="#F6A42C" opacity="1.000000" stroke="none" 
	d="
M1478.719238,134.161682 
	C1481.783325,131.882339 1484.995117,133.558731 1488.428589,132.964005 
	C1492.636230,132.021835 1496.459717,132.684479 1500.695801,132.737976 
	C1507.824097,132.343033 1514.209595,134.366089 1520.932007,135.567535 
	C1526.564819,141.501724 1532.676636,146.340057 1538.083252,151.973740 
	C1544.962891,159.142380 1552.021362,166.154861 1559.111450,173.121704 
	C1565.605835,179.503036 1572.027954,185.956116 1578.466675,192.391449 
	C1585.265625,199.186935 1591.943848,206.112381 1598.875488,212.765274 
	C1608.445557,221.950729 1617.048340,232.116135 1627.513428,240.892075 
	C1629.447021,243.851761 1631.656738,246.113266 1633.896851,248.357162 
	C1647.907959,262.391693 1661.931519,276.413727 1675.957764,290.433105 
	C1677.594360,292.068939 1679.489502,293.521637 1680.440430,296.158722 
	C1680.527832,296.751709 1680.516846,296.994568 1680.325562,297.554382 
	C1678.991943,298.859467 1677.838745,299.847626 1676.395508,300.992157 
	C1672.804077,302.290039 1671.222778,299.674103 1669.422241,297.897797 
	C1654.839966,283.512299 1640.484619,268.898468 1625.905762,254.509384 
	C1624.237427,252.862717 1622.688232,250.218216 1619.737061,252.875702 
	C1617.677124,254.730576 1616.908569,256.527222 1619.284790,258.705200 
	C1620.387085,259.715515 1621.395142,260.832703 1622.450806,261.896637 
	C1636.175049,275.727814 1650.060303,289.398071 1663.754150,303.259247 
	C1665.464600,304.990692 1667.684204,306.513428 1667.263062,309.772522 
	C1664.862915,312.375977 1667.082764,313.499969 1668.381592,314.800629 
	C1682.805054,329.245575 1697.255493,343.663757 1711.589600,358.196625 
	C1711.877075,358.488007 1716.470703,359.973389 1711.384521,361.123718 
	C1710.834595,361.339417 1710.627686,361.460022 1710.062744,361.588989 
	C1706.433228,359.347260 1703.336182,356.900452 1700.517456,354.079620 
	C1671.848633,325.390747 1643.187866,296.693787 1614.466309,268.057739 
	C1612.530029,266.127045 1610.930786,263.455902 1607.179688,263.814636 
	C1600.217529,263.389038 1597.681519,257.512207 1593.812866,253.699783 
	C1583.533691,243.569748 1573.334717,233.351166 1563.164307,223.110321 
	C1554.045288,213.928070 1544.962891,204.699661 1535.803589,195.560272 
	C1526.405518,186.182785 1516.961792,176.841644 1507.566772,167.460876 
	C1498.403442,158.311386 1489.130981,149.257904 1480.295410,139.782089 
	C1478.929199,138.316833 1477.611084,136.731537 1478.719238,134.161682 
z"/>
<path fill="#F39C32" opacity="1.000000" stroke="none" 
	d="
M1478.506470,133.920761 
	C1479.330322,134.762665 1479.528442,135.864090 1480.175781,136.526993 
	C1487.468018,143.994125 1494.829834,151.393387 1502.171875,158.811951 
	C1509.040405,165.752213 1515.895142,172.706055 1522.779175,179.630890 
	C1528.952881,185.841461 1535.157227,192.021759 1541.349854,198.213547 
	C1548.487183,205.349808 1555.627930,212.482651 1562.764404,219.619766 
	C1568.956421,225.812286 1575.106689,232.046951 1581.344727,238.192719 
	C1587.937866,244.688538 1594.704956,251.009354 1600.738770,258.053131 
	C1602.236694,259.801758 1603.618042,261.801361 1606.629150,261.977600 
	C1607.702637,262.933136 1607.601685,264.090485 1606.969116,264.781708 
	C1603.724976,268.325623 1606.046143,270.546753 1608.546143,273.041016 
	C1634.671143,299.105835 1660.754883,325.212006 1686.835938,351.320801 
	C1688.779297,353.266327 1691.334595,354.928070 1691.034912,358.528046 
	C1688.336670,357.870575 1685.713501,357.952637 1682.682495,358.043396 
	C1681.635376,358.538025 1680.920166,358.608398 1679.821045,358.317749 
	C1653.159180,333.756927 1628.557739,307.587433 1602.920166,282.465515 
	C1597.202881,276.863251 1597.248413,276.816772 1590.055908,279.578308 
	C1579.882690,272.786285 1572.286133,263.645386 1563.929321,255.351288 
	C1538.659912,230.271149 1513.560913,205.019073 1488.377686,179.851730 
	C1479.669556,171.149139 1470.797974,162.599304 1462.340332,153.662201 
	C1459.064819,150.200974 1455.178711,146.763657 1454.745239,141.171265 
	C1462.283203,137.294205 1469.970215,134.911636 1478.506470,133.920761 
z"/>
<path fill="#F38120" opacity="1.000000" stroke="none" 
	d="
M285.154755,238.458649 
	C280.227020,238.030807 275.565613,237.944916 270.907562,238.033020 
	C268.930145,238.070404 268.263184,237.639053 267.876373,235.393845 
	C266.604523,228.010895 266.644135,220.742645 267.901520,213.372849 
	C268.243286,211.369736 268.883362,210.972092 270.648865,210.976837 
	C286.127655,211.018524 301.606995,211.054718 317.085175,210.949173 
	C319.675659,210.931534 320.035309,212.028214 320.032867,214.222092 
	C319.986694,255.499146 319.978180,296.776306 320.052124,338.053314 
	C320.056519,340.503418 319.198425,340.752289 316.978882,341.116241 
	C306.979950,342.755768 297.046814,342.081757 286.666931,340.934509 
	C284.800842,339.301422 285.544128,337.379089 285.538544,335.639954 
	C285.434570,303.383759 285.603790,271.127197 285.154755,238.458649 
z"/>
<path fill="#808185" opacity="1.000000" stroke="none" 
	d="
M944.241028,339.703369 
	C934.895935,342.469574 925.705627,341.820221 916.378235,341.540924 
	C908.967346,341.319000 909.947815,337.511108 909.960144,332.864197 
	C910.039612,302.877106 909.932068,272.889343 910.086426,242.902863 
	C910.106262,239.049026 909.195740,237.432159 905.166626,237.941315 
	C902.706970,238.252136 900.137024,237.718567 897.685669,238.060059 
	C893.408813,238.655853 892.078735,236.353409 892.013367,232.774246 
	C891.912903,227.278534 891.934448,221.778488 892.022827,216.282196 
	C892.080261,212.707962 893.323120,210.805237 897.628052,210.889709 
	C912.782532,211.187119 927.946106,211.022552 943.573486,211.097717 
	C944.711914,212.227112 944.491699,213.419937 944.491028,214.566437 
	C944.466614,256.127991 944.570190,297.689575 944.241028,339.703369 
z"/>
<path fill="#F7AC23" opacity="1.000000" stroke="none" 
	d="
M1627.109131,242.034485 
	C1620.408569,240.113678 1617.671265,234.061874 1613.148926,230.079468 
	C1609.079468,226.495804 1605.781006,222.018646 1601.625122,218.556396 
	C1597.411499,215.045853 1593.913696,210.862991 1590.001465,207.098129 
	C1582.537720,199.915237 1575.361328,192.417618 1567.923950,185.184250 
	C1561.195923,178.640900 1554.914307,171.641083 1548.278809,164.999374 
	C1541.643433,158.358063 1534.756836,151.968018 1528.096680,145.350769 
	C1525.457520,142.728729 1521.749634,140.894806 1521.115112,136.288651 
	C1529.001343,138.529068 1529.140381,138.525970 1528.950928,130.035797 
	C1528.823120,124.302620 1530.408691,118.865814 1531.557007,113.094467 
	C1534.926392,110.901695 1536.995239,112.857262 1538.844482,114.771439 
	C1571.569824,148.645142 1605.336182,181.482346 1638.470215,214.948303 
	C1640.934448,217.437057 1644.026855,219.196472 1646.355957,222.304855 
	C1646.975220,224.226913 1646.513672,225.779205 1645.414673,226.769882 
	C1641.838257,229.994370 1643.634888,232.174774 1646.310547,234.833694 
	C1660.568481,249.002106 1674.834717,263.163666 1688.942871,277.481842 
	C1690.843506,279.410797 1693.537476,281.088043 1692.361572,284.857300 
	C1691.350098,286.057526 1690.513794,286.956665 1689.417236,288.021271 
	C1685.704712,290.029236 1683.889282,287.315399 1681.968018,285.419891 
	C1668.107422,271.746124 1654.388184,257.930115 1640.629639,244.153763 
	C1635.768433,239.286331 1635.758057,239.302429 1629.417480,241.966934 
	C1628.792114,242.229736 1628.120361,242.223160 1627.109131,242.034485 
z"/>
<path fill="#E37C3A" opacity="1.000000" stroke="none" 
	d="
M1591.260254,385.768463 
	C1590.105225,387.213440 1589.099121,388.338409 1588.010254,389.779419 
	C1587.729980,390.233765 1587.532715,390.372070 1586.993408,390.629639 
	C1583.992432,390.841248 1582.447021,388.967407 1580.816406,387.344299 
	C1567.491577,374.081421 1554.213013,360.772247 1540.942261,347.455261 
	C1539.777588,346.286407 1538.452515,345.208649 1537.986572,343.513336 
	C1537.854736,343.033020 1537.755127,342.543915 1537.581543,342.075134 
	C1537.400146,342.613251 1537.246094,343.165985 1536.481689,343.742004 
	C1532.583130,344.762695 1530.657227,342.162140 1528.576172,340.101837 
	C1517.334717,328.973175 1506.176636,317.760559 1494.998413,306.568298 
	C1468.523682,280.060394 1442.058594,253.542694 1415.511230,227.107620 
	C1409.744873,221.365692 1404.328247,215.236176 1397.351074,210.276184 
	C1398.927979,202.926361 1401.484009,196.082611 1404.565308,189.135651 
	C1406.737427,187.247345 1408.556152,187.894928 1410.317505,189.095779 
	C1411.837402,190.131973 1413.064941,191.507385 1414.357788,192.799942 
	C1456.119629,234.552277 1497.868530,276.317566 1539.626221,318.073944 
	C1541.727905,320.175629 1544.136108,322.062958 1545.343750,325.337250 
	C1545.685059,326.494080 1545.896729,327.460358 1545.483643,328.124329 
	C1541.932617,333.831024 1545.591187,337.135590 1549.280029,340.772552 
	C1562.197510,353.508453 1574.984863,366.376770 1587.755493,379.260712 
	C1589.468262,380.988831 1591.692993,382.503052 1591.260254,385.768463 
z"/>
<path fill="#EB863D" opacity="1.000000" stroke="none" 
	d="
M1544.746094,327.006256 
	C1543.552856,324.843658 1541.905273,323.410553 1540.380371,321.885498 
	C1497.345947,278.845734 1454.310913,235.806549 1411.261108,192.782364 
	C1409.644897,191.167130 1408.272217,189.110306 1405.251709,188.986420 
	C1407.068970,182.282837 1411.809326,177.107483 1415.637695,171.051697 
	C1418.396973,170.775558 1419.909424,172.373154 1421.442017,173.908020 
	C1465.509277,218.039124 1509.709351,262.037445 1553.734619,306.210510 
	C1555.145020,307.625580 1556.548218,309.057648 1557.243774,311.389465 
	C1557.472168,312.931335 1557.416382,314.255585 1556.635498,315.072571 
	C1552.670776,319.221252 1555.287842,321.849182 1558.364990,324.894836 
	C1572.284302,338.672119 1586.118042,352.536835 1599.934082,366.418488 
	C1601.560425,368.052551 1603.452759,369.492340 1604.409546,372.111603 
	C1604.500610,372.698975 1604.492554,372.939941 1604.308594,373.496887 
	C1602.981567,374.816559 1601.830566,375.820251 1600.390869,376.983643 
	C1596.800415,378.291687 1595.223511,375.671295 1593.422363,373.897522 
	C1579.307251,359.996948 1565.427368,345.859833 1551.350830,331.920135 
	C1549.470825,330.058441 1547.757080,327.945038 1544.746094,327.006256 
z"/>
<path fill="#F39737" opacity="1.000000" stroke="none" 
	d="
M1454.588867,140.936096 
	C1462.542480,151.867477 1472.411377,160.762604 1481.756836,170.131210 
	C1493.259155,181.661850 1504.830322,193.123703 1516.357788,204.629150 
	C1529.065796,217.312698 1541.770752,229.999329 1554.453003,242.708801 
	C1563.374146,251.649124 1572.396851,260.495392 1581.072388,269.669189 
	C1583.910156,272.670227 1588.176636,274.195557 1589.931152,278.655792 
	C1592.104492,282.618408 1595.032715,285.542664 1597.976196,288.470184 
	C1617.664429,308.052826 1637.261597,327.726715 1656.879639,347.379547 
	C1658.819702,349.322876 1661.404785,350.965149 1661.077881,354.583191 
	C1658.405273,355.796661 1656.298584,353.530762 1653.453735,354.098022 
	C1652.851074,354.300934 1652.649170,354.430939 1652.088623,354.576172 
	C1648.550415,352.750153 1645.823975,350.349731 1643.234253,347.769440 
	C1625.450684,330.050873 1607.669678,312.328522 1590.052856,294.446014 
	C1586.581787,290.922516 1583.425415,288.738739 1578.196777,290.922241 
	C1575.506714,290.184082 1573.908081,288.468933 1572.264038,286.822449 
	C1529.374023,243.862686 1486.402832,200.983994 1443.503784,158.033279 
	C1441.426636,155.953583 1438.919312,154.050888 1438.864502,150.309464 
	C1443.140259,145.495209 1448.962646,143.723984 1454.588867,140.936096 
z"/>
<path fill="#F18E3E" opacity="1.000000" stroke="none" 
	d="
M1556.597168,312.919769 
	C1555.277832,310.349609 1553.268311,308.785461 1551.511597,307.028015 
	C1507.922241,263.417969 1464.318726,219.822021 1420.727173,176.214127 
	C1419.199097,174.685471 1417.767578,173.060257 1416.120850,171.185944 
	C1419.047363,166.659515 1422.477783,162.722702 1426.643066,159.026871 
	C1429.778564,158.796295 1431.540405,160.687698 1433.275879,162.449341 
	C1476.170654,205.990692 1519.667847,248.930893 1562.764648,292.270386 
	C1564.980225,294.498413 1567.706177,296.252930 1569.443604,299.411499 
	C1569.861572,300.757050 1569.811279,301.911957 1569.143433,302.594177 
	C1565.120605,306.703735 1567.726562,309.332855 1570.814209,312.380707 
	C1584.770020,326.156189 1598.655273,340.004242 1612.442261,353.949310 
	C1614.255249,355.783203 1616.694092,357.341003 1616.298828,360.806732 
	C1615.329346,362.037537 1614.500732,362.946503 1613.419434,364.033661 
	C1609.715820,366.019226 1607.901123,363.321045 1605.972778,361.423950 
	C1591.737915,347.418549 1577.719482,333.195496 1563.565918,319.107971 
	C1561.442505,316.994415 1559.336426,314.862488 1556.597168,312.919769 
z"/>
<path fill="#D05F35" opacity="1.000000" stroke="none" 
	d="
M1436.950928,338.308655 
	C1438.171143,332.926514 1441.530273,329.084351 1444.477417,325.038727 
	C1446.324097,322.503815 1447.895142,321.294006 1443.630493,318.752563 
	C1426.692139,308.658295 1413.400146,294.904114 1404.908936,276.459259 
	C1407.005127,273.994598 1408.875488,275.602112 1410.650879,276.671631 
	C1412.799561,277.965973 1414.446655,279.897278 1416.209839,281.660522 
	C1456.439209,321.890747 1496.646606,362.143250 1536.972656,402.276306 
	C1539.683228,404.973938 1541.153687,409.226379 1545.977661,410.037933 
	C1546.989258,410.335663 1547.540771,410.743408 1548.263428,411.472107 
	C1549.019043,412.351440 1549.460327,413.070099 1550.396240,413.771027 
	C1552.703003,415.710175 1555.109497,417.110779 1556.370361,420.060547 
	C1556.468018,420.631287 1556.464844,420.865906 1556.300781,421.413544 
	C1550.033813,427.461487 1543.761353,432.959076 1535.408447,436.063019 
	C1531.209595,434.963074 1528.621582,432.040222 1525.957642,429.389893 
	C1497.409058,400.986755 1468.964355,372.479370 1440.470581,344.021149 
	C1438.916504,342.469086 1437.504272,340.873047 1436.950928,338.308655 
z"/>
<path fill="#F9B31D" opacity="1.000000" stroke="none" 
	d="
M1646.186646,223.288300 
	C1642.803711,222.134705 1640.488770,219.988861 1638.241699,217.741898 
	C1605.951416,185.451126 1573.683228,153.138077 1541.329712,120.910782 
	C1538.572388,118.164200 1537.101929,113.905136 1532.261353,112.982071 
	C1532.916382,105.289337 1537.346802,99.065384 1540.577393,92.068634 
	C1542.669922,91.305061 1543.653198,92.479179 1544.738525,93.541306 
	C1556.824341,105.369370 1568.476562,117.633606 1580.524658,129.489548 
	C1589.730713,138.548752 1598.862061,147.690781 1608.032349,156.784317 
	C1615.205933,163.897736 1622.260864,171.160736 1629.382935,178.327667 
	C1637.678711,186.675308 1646.004150,195.022141 1654.618042,203.060638 
	C1656.431885,204.753372 1658.318726,206.460129 1659.052734,209.374237 
	C1659.139648,211.508240 1658.423340,213.102478 1657.168335,214.181244 
	C1653.586548,217.259903 1654.945068,219.531189 1657.755493,222.302292 
	C1672.206177,236.550339 1686.499146,250.958054 1700.836060,265.321228 
	C1702.563721,267.052246 1704.743530,268.535400 1705.026123,271.651917 
	C1704.029541,273.161194 1703.044678,274.321442 1701.965576,275.800720 
	C1701.661743,276.241333 1701.452026,276.362854 1700.880249,276.502319 
	C1698.594116,276.162598 1697.309814,274.828156 1696.012451,273.534729 
	C1679.852417,257.425262 1663.810791,241.197113 1647.530640,225.208191 
	C1647.049316,224.735489 1646.741821,224.139252 1646.186646,223.288300 
z"/>
<path fill="#DE7339" opacity="1.000000" stroke="none" 
	d="
M1397.050293,210.445374 
	C1401.286987,209.603088 1403.808716,212.286819 1406.430176,214.910049 
	C1447.691162,256.199493 1488.967407,297.473755 1530.258301,338.733337 
	C1531.882568,340.356384 1533.249878,342.359406 1536.036133,343.063354 
	C1538.096069,344.853210 1537.547974,346.937408 1536.990479,348.769440 
	C1535.920044,352.287476 1537.211182,354.690277 1539.669556,357.124603 
	C1551.446289,368.786194 1563.137329,380.535065 1574.802734,392.308624 
	C1576.508911,394.030701 1578.733887,395.528107 1578.300537,398.796783 
	C1577.331665,400.035370 1576.500610,400.944244 1575.417969,402.033020 
	C1572.266846,403.869995 1570.399780,401.895264 1568.682495,400.154236 
	C1557.260864,388.574127 1545.264160,377.560242 1534.418701,365.412506 
	C1533.961060,364.899994 1533.345093,364.649109 1532.372559,364.352203 
	C1525.905029,362.818054 1522.745972,357.501190 1518.654663,353.574432 
	C1511.500977,346.708221 1504.526611,339.636932 1497.558716,332.572662 
	C1491.051636,325.975525 1484.463379,319.460144 1477.952271,312.867554 
	C1471.439941,306.273834 1464.904053,299.700745 1458.303467,293.197357 
	C1451.583252,286.576202 1444.929688,279.887604 1438.254028,273.223724 
	C1431.459229,266.441132 1424.481445,259.829498 1417.929565,252.816360 
	C1410.590210,244.960220 1401.871948,238.430527 1395.383667,229.275330 
	C1394.415527,222.814621 1396.341309,216.905701 1397.050293,210.445374 
z"/>
<path fill="#D56736" opacity="1.000000" stroke="none" 
	d="
M1546.224365,410.582214 
	C1543.078125,413.182800 1541.829590,410.249023 1540.380005,408.807129 
	C1520.416626,388.951538 1500.524414,369.024292 1480.614746,349.114685 
	C1458.131470,326.631653 1435.645020,304.151733 1413.169800,281.660583 
	C1410.923584,279.412750 1408.644653,277.237000 1405.203125,276.135742 
	C1400.119873,267.142853 1397.390869,257.565674 1396.003906,247.575867 
	C1395.870117,246.612579 1396.145020,245.566605 1395.241455,244.386932 
	C1397.310303,242.035187 1399.192749,243.236771 1400.940186,244.597458 
	C1402.645142,245.925018 1404.082886,247.563766 1405.614258,249.089828 
	C1447.323730,290.654236 1488.865234,332.386444 1530.524170,374.001312 
	C1531.240112,374.716583 1531.864014,375.475922 1533.241943,375.819427 
	C1543.182739,385.760529 1552.967529,395.385254 1562.647217,405.114929 
	C1564.038696,406.513641 1565.599121,407.798401 1566.401611,410.097778 
	C1566.495483,410.688568 1566.488159,410.931030 1566.304688,411.491699 
	C1564.981567,412.815247 1563.834961,413.820526 1562.406982,414.996185 
	C1559.352661,416.251190 1557.802124,414.239288 1556.194458,412.682068 
	C1550.885986,407.540985 1545.690552,402.284210 1540.732178,397.233215 
	C1541.623657,401.815399 1546.710938,404.852325 1546.224365,410.582214 
z"/>
<path fill="#F3933C" opacity="1.000000" stroke="none" 
	d="
M1569.236450,300.226837 
	C1566.111572,298.835358 1564.099609,296.579620 1561.995728,294.476929 
	C1519.849121,252.355515 1477.715454,210.221283 1435.591064,168.077637 
	C1432.777222,165.262497 1430.059082,162.351639 1427.124390,159.188217 
	C1430.620728,155.832275 1433.828857,152.193176 1438.532959,149.972443 
	C1484.514038,195.724533 1530.138794,241.494019 1575.755493,287.271637 
	C1576.457275,287.975891 1577.058105,288.780792 1577.871582,289.836182 
	C1577.969238,294.294678 1580.385986,296.999084 1583.179321,299.740204 
	C1597.991821,314.275513 1612.554321,329.063202 1627.233398,343.733643 
	C1629.069092,345.568359 1631.407349,347.182343 1631.085205,350.576416 
	C1629.331177,351.048187 1627.759277,351.217926 1626.027344,351.753296 
	C1625.659058,352.240112 1625.450806,352.361328 1624.882568,352.501007 
	C1621.890747,351.962646 1620.378052,349.871704 1618.639160,348.138611 
	C1604.319946,333.867767 1589.998901,319.598602 1575.757935,305.249634 
	C1573.879395,303.356964 1571.922974,301.614960 1569.236450,300.226837 
z"/>
<path fill="#F9BB14" opacity="1.000000" stroke="none" 
	d="
M1730.363159,246.856171 
	C1729.350708,248.058807 1728.514771,248.958191 1727.417847,250.021912 
	C1723.721191,252.022034 1721.907959,249.328583 1719.989502,247.439484 
	C1705.457031,233.129562 1691.069458,218.672775 1676.734863,204.165771 
	C1674.209229,201.609650 1671.821655,200.533386 1668.114502,201.684967 
	C1664.074341,200.048798 1662.084595,196.618134 1659.403442,193.940018 
	C1623.636841,158.213409 1587.899658,122.457176 1552.135986,86.727478 
	C1550.656494,85.249336 1548.523193,84.150299 1548.824707,81.219803 
	C1552.473267,77.020973 1555.829956,72.985718 1560.541504,69.968506 
	C1565.949829,69.911514 1568.132324,74.285217 1570.987915,77.120377 
	C1584.047607,90.086639 1597.124756,103.041161 1610.056152,116.133514 
	C1621.821045,128.044769 1633.727783,139.814911 1645.488037,151.730789 
	C1655.860474,162.240540 1666.447754,172.540833 1676.735229,183.137955 
	C1678.125854,184.570312 1679.526733,186.005844 1680.250854,188.324234 
	C1680.069336,191.936050 1681.646484,194.221664 1683.907959,196.448410 
	C1698.361816,210.679031 1712.653564,225.073456 1726.940063,239.472092 
	C1728.847900,241.395004 1731.537720,243.082535 1730.363159,246.856171 
z"/>
<path fill="#FCC110" opacity="1.000000" stroke="none" 
	d="
M1679.670410,189.842255 
	C1675.036621,183.333954 1668.993774,178.541702 1663.793213,172.981384 
	C1656.787476,165.491165 1649.350220,158.404053 1642.082764,151.159637 
	C1635.877197,144.973785 1629.647461,138.812210 1623.432495,132.635818 
	C1616.502319,125.748688 1609.569946,118.863800 1602.651123,111.965446 
	C1596.097778,105.431519 1589.539307,98.902351 1583.022095,92.332550 
	C1575.791260,85.043404 1568.604248,77.710686 1561.144653,70.173508 
	C1565.123047,65.278152 1570.620361,62.554394 1576.589722,59.938286 
	C1577.366455,62.907276 1579.381836,64.897141 1581.403442,66.916374 
	C1599.913696,85.404358 1618.434692,103.881989 1636.881958,122.432686 
	C1640.032959,125.601357 1642.850220,129.102036 1645.907837,132.777817 
	C1646.192627,136.179367 1649.268433,136.611908 1650.935425,138.286087 
	C1680.511719,167.989517 1710.170288,197.611084 1739.777954,227.283478 
	C1741.494141,229.003494 1743.706177,230.531464 1743.284668,233.792511 
	C1742.111206,235.241104 1741.081299,236.369003 1739.959717,237.814728 
	C1739.658447,238.251602 1739.448975,238.370621 1738.879395,238.506866 
	C1735.882324,237.960266 1734.370361,235.859375 1732.623901,234.123779 
	C1719.069092,220.653641 1705.492432,207.203476 1692.129395,193.544586 
	C1688.566895,189.902954 1685.356201,186.762634 1679.670410,189.842255 
z"/>
<path fill="#FBCD14" opacity="1.000000" stroke="none" 
	d="
M1734.250244,135.245026 
	C1731.014160,134.317627 1728.421021,132.930466 1726.250000,130.749466 
	C1711.630859,116.063507 1697.005127,101.383980 1682.198242,86.431564 
	C1686.921021,81.359932 1691.849487,76.581490 1696.718872,71.743721 
	C1698.095581,70.375938 1699.440918,69.014389 1701.562744,68.089767 
	C1704.060913,66.697495 1706.053711,67.287483 1707.839722,68.730202 
	C1714.004639,73.710136 1719.544189,79.368622 1725.178467,84.918526 
	C1732.440430,92.071976 1739.086426,99.860863 1747.064087,106.273186 
	C1749.824707,108.492172 1751.244873,111.812965 1754.069336,114.413445 
	C1770.348999,130.758957 1786.406860,146.827042 1802.418945,162.940659 
	C1804.233765,164.767075 1806.678467,166.308899 1806.267578,169.778870 
	C1805.052124,171.493942 1804.740845,173.427979 1802.896729,174.673203 
	C1802.541626,175.109070 1802.340698,175.242172 1801.779663,175.395844 
	C1798.772705,174.863708 1797.238892,172.773102 1795.498169,171.025620 
	C1781.158325,156.629669 1766.738037,142.314041 1752.360229,127.956108 
	C1750.861328,126.459312 1749.532471,123.821091 1746.610962,126.054726 
	C1743.729248,128.257690 1743.567139,129.980423 1746.526245,132.966949 
	C1756.724609,143.260071 1767.136230,153.343658 1777.214966,163.752579 
	C1782.985596,169.712265 1789.582275,174.901047 1794.443604,182.164825 
	C1794.530640,182.754639 1794.520142,182.996277 1794.330444,183.553391 
	C1792.995972,184.857773 1791.840698,185.846710 1790.386475,186.976028 
	C1786.785278,188.290833 1785.218262,185.656906 1783.422363,183.889542 
	C1769.676880,170.362640 1756.151001,156.614975 1742.480347,143.012512 
	C1739.887085,140.432205 1737.267822,137.882416 1734.250244,135.245026 
z"/>
<path fill="#F9B719" opacity="1.000000" stroke="none" 
	d="
M1548.635010,81.029877 
	C1585.721680,117.511383 1622.501465,154.122849 1659.236084,190.779327 
	C1662.264038,193.800751 1664.987549,197.127121 1667.924438,200.644485 
	C1666.921631,206.449371 1670.800293,209.316452 1674.047607,212.535187 
	C1687.529297,225.898804 1700.887207,239.386414 1714.313232,252.805817 
	C1715.832764,254.324814 1717.572632,255.690369 1718.441528,258.168579 
	C1718.526123,258.758209 1718.514282,258.999542 1718.321289,259.554749 
	C1716.989136,260.856842 1715.838135,261.845062 1714.396729,262.988281 
	C1712.038818,264.071838 1710.524536,262.940033 1709.219116,261.637177 
	C1692.250732,244.704712 1675.092285,227.961685 1658.226440,210.438248 
	C1655.287598,206.118317 1651.566040,202.996658 1648.101318,199.672775 
	C1637.153442,189.170090 1626.536011,178.346222 1615.911987,167.519470 
	C1606.677979,158.109436 1596.906860,149.228653 1587.580688,139.906281 
	C1578.372192,130.701614 1569.729126,120.911072 1560.242065,112.013107 
	C1554.926270,107.027641 1550.675171,100.993317 1544.692871,96.679802 
	C1543.290527,95.668633 1542.478516,93.838531 1541.147827,92.147919 
	C1543.372559,88.330940 1545.844482,84.751244 1548.635010,81.029877 
z"/>
<path fill="#C64E31" opacity="1.000000" stroke="none" 
	d="
M1436.571655,338.157196 
	C1438.500366,339.385864 1440.200684,340.727234 1441.722656,342.247284 
	C1469.994385,370.485229 1498.278931,398.710480 1526.445923,427.052612 
	C1529.221680,429.845612 1533.260986,431.426971 1534.893555,435.797577 
	C1528.187866,440.160187 1520.566406,441.726074 1512.434448,442.917358 
	C1506.771362,437.096680 1501.149170,431.697876 1495.641724,426.188629 
	C1476.164062,406.704529 1456.701050,387.205688 1437.198364,367.746704 
	C1435.203125,365.755890 1433.284058,363.668640 1430.421265,362.178284 
	C1430.454224,353.663605 1433.398071,346.018921 1436.571655,338.157196 
z"/>
<path fill="#828386" opacity="1.000000" stroke="none" 
	d="
M1796.617432,72.440857 
	C1798.686646,70.173531 1799.997070,70.253120 1802.143311,72.407433 
	C1850.202759,120.649475 1898.395386,168.758698 1946.503540,216.952255 
	C1951.769653,222.227737 1953.056763,229.475220 1954.852905,236.318451 
	C1955.347534,238.202957 1956.923462,240.181824 1955.182739,243.297729 
	C1909.552490,197.504105 1864.122314,151.911179 1818.366455,106.326355 
	C1817.286255,106.344452 1816.651001,106.034012 1815.794189,105.354568 
	C1815.375732,104.921379 1815.225586,104.731834 1814.900391,104.226318 
	C1814.648438,103.684578 1814.571289,103.458809 1814.445557,102.883148 
	C1811.427734,93.393051 1805.882690,85.798279 1799.912109,78.467918 
	C1798.768677,77.063950 1797.238281,75.964539 1796.524170,73.815948 
	C1796.433105,73.234253 1796.440918,72.995537 1796.617432,72.440857 
z"/>
<path fill="#828386" opacity="1.000000" stroke="none" 
	d="
M1789.688477,187.784607 
	C1790.703613,188.408203 1791.385498,188.884079 1791.964478,189.462997 
	C1838.606201,236.098740 1885.240356,282.742279 1931.940430,329.450836 
	C1929.054199,332.213013 1926.192749,334.951385 1923.231323,337.785553 
	C1876.347900,290.912567 1829.245728,243.820786 1781.996338,196.427887 
	C1782.041626,191.408569 1784.253174,188.905365 1789.688477,187.784607 
z"/>
<path fill="#838487" opacity="1.000000" stroke="none" 
	d="
M1801.998047,174.915604 
	C1802.367065,174.884232 1802.572266,174.858643 1802.657471,174.917297 
	C1805.749634,178.076569 1808.716431,181.217407 1811.769775,184.271759 
	C1854.491699,227.011185 1897.180542,269.783875 1940.055664,312.369171 
	C1942.951294,315.245209 1942.348633,316.926788 1940.268921,319.287109 
	C1939.407471,320.264618 1938.532593,321.138672 1937.872803,322.363983 
	C1936.684082,324.571167 1934.817261,324.646210 1933.039429,322.738983 
	C1932.699707,322.374512 1932.336914,322.031586 1931.984497,321.678925 
	C1886.215820,275.873688 1840.447144,230.068314 1794.414795,184.065979 
	C1794.151245,183.868881 1794.200073,183.464279 1794.216797,183.261200 
	C1794.634766,178.472534 1797.495972,176.130066 1801.998047,174.915604 
z"/>
<path fill="#838487" opacity="1.000000" stroke="none" 
	d="
M1776.662598,200.188248 
	C1777.045776,200.219315 1777.459961,200.179794 1777.666260,200.154022 
	C1823.463501,245.740143 1869.054932,291.351746 1914.644897,336.964569 
	C1919.005127,341.327057 1918.629517,342.012817 1913.367432,345.453094 
	C1909.652954,347.881500 1907.682373,347.370605 1904.574341,344.242859 
	C1859.817383,299.200684 1814.882812,254.334915 1769.765381,209.149109 
	C1769.408813,204.252625 1771.046875,202.134583 1776.662598,200.188248 
z"/>
<path fill="#828386" opacity="1.000000" stroke="none" 
	d="
M1812.715820,159.712097 
	C1814.557617,161.164444 1816.056152,162.473907 1817.460327,163.877762 
	C1860.683960,207.089722 1903.898438,250.310974 1947.113770,293.531219 
	C1951.093140,297.511169 1950.992676,304.539825 1946.987671,308.371735 
	C1946.162476,309.161163 1945.582642,308.988251 1944.913818,308.382050 
	C1944.174316,307.711884 1943.475220,306.996490 1942.769043,306.290222 
	C1897.552612,261.068481 1852.337402,215.845520 1806.963745,170.320435 
	C1806.187500,165.244553 1808.103638,161.816071 1812.715820,159.712097 
z"/>
<path fill="#838487" opacity="1.000000" stroke="none" 
	d="
M1819.685913,115.967087 
	C1825.677612,121.188599 1831.287964,126.628258 1836.814453,132.151733 
	C1875.555664,170.871353 1914.233398,209.654648 1953.086304,248.261749 
	C1956.647583,251.800354 1958.776855,255.190720 1958.062500,260.311310 
	C1957.658569,263.206726 1957.989746,266.204712 1957.989746,270.386749 
	C1911.712891,224.133347 1866.227783,178.671341 1820.456421,133.043121 
	C1819.906006,132.686234 1819.641968,132.495560 1819.126709,131.885651 
	C1817.831543,126.355560 1816.579468,121.239380 1819.685913,115.967087 
z"/>
<path fill="#828386" opacity="1.000000" stroke="none" 
	d="
M1818.770264,141.082947 
	C1820.129272,141.845322 1821.161133,142.675095 1822.092163,143.605774 
	C1866.162964,187.655579 1910.225220,231.713943 1954.286987,275.772858 
	C1956.804199,278.289917 1956.466064,287.765381 1953.884399,290.294708 
	C1953.069946,291.092651 1952.514038,290.968201 1951.827637,290.357880 
	C1951.206177,289.805206 1950.616333,289.215698 1950.027954,288.627014 
	C1905.279175,243.849167 1860.531738,199.069748 1815.543701,154.071259 
	C1815.090088,153.702957 1814.877075,153.553894 1814.538818,153.035522 
	C1814.929932,148.561646 1815.157471,144.356812 1818.770264,141.082947 
z"/>
<path fill="#838487" opacity="1.000000" stroke="none" 
	d="
M1756.397705,222.065399 
	C1756.127930,221.873901 1756.181519,221.460968 1756.201416,221.253723 
	C1757.161621,216.213638 1759.273682,214.139389 1764.514038,213.394806 
	C1804.840698,253.456009 1844.809082,293.376373 1884.781860,333.292358 
	C1890.782593,339.284607 1896.803101,345.257172 1903.161133,351.583862 
	C1899.440308,353.046204 1896.054565,354.340942 1892.700073,355.712006 
	C1891.259521,356.300903 1890.147339,355.973053 1889.164673,354.853943 
	C1888.836426,354.479980 1888.463013,354.145599 1888.110596,353.792816 
	C1844.296143,309.947479 1800.481812,266.102234 1756.397705,222.065399 
z"/>
<path fill="#828386" opacity="1.000000" stroke="none" 
	d="
M1751.701660,225.792633 
	C1753.188843,226.890671 1754.345093,227.834930 1755.395508,228.885040 
	C1797.232910,270.707947 1839.061646,312.539642 1880.884399,354.377228 
	C1882.023071,355.516418 1883.083252,356.734009 1884.564331,358.328705 
	C1880.591064,359.339630 1877.248657,360.261658 1873.870850,361.027313 
	C1871.064941,361.663330 1869.326050,359.954407 1867.487793,358.112122 
	C1835.708374,326.262909 1803.877930,294.464539 1772.060303,262.653473 
	C1762.752563,253.347534 1753.449585,244.036682 1743.997192,234.427124 
	C1744.043213,229.401367 1746.269043,226.887619 1751.701660,225.792633 
z"/>
<path fill="#838487" opacity="1.000000" stroke="none" 
	d="
M1680.410645,298.066040 
	C1680.145142,297.871277 1680.190063,297.462738 1680.203857,297.257721 
	C1681.164795,292.188171 1683.297974,290.107727 1688.544189,289.428467 
	C1727.924561,328.546173 1766.944702,367.518921 1805.998535,406.458008 
	C1807.330200,407.785645 1807.890137,408.583191 1806.433960,410.392334 
	C1805.544434,411.497314 1804.620605,412.652710 1803.752930,413.816986 
	C1801.196777,417.246735 1799.317627,417.190247 1796.113037,413.960938 
	C1757.739380,375.289795 1719.184082,336.798859 1680.410645,298.066040 
z"/>
<path fill="#828386" opacity="1.000000" stroke="none" 
	d="
M1675.761108,301.757324 
	C1678.892090,304.504730 1681.685425,307.107422 1684.384277,309.804688 
	C1720.309326,345.708923 1756.218628,381.628784 1792.145996,417.530487 
	C1793.436157,418.819550 1794.874146,419.960510 1796.074951,421.021698 
	C1794.271729,424.429016 1790.933960,425.288666 1788.814209,427.626862 
	C1787.767944,428.780945 1785.962769,429.142822 1784.734619,427.273315 
	C1784.466187,426.864502 1784.039307,426.559998 1783.686157,426.206635 
	C1745.185181,387.700073 1706.684326,349.193451 1668.039062,310.384430 
	C1668.066040,305.367340 1670.327515,302.821594 1675.761108,301.757324 
z"/>
<path fill="#838487" opacity="1.000000" stroke="none" 
	d="
M1738.672852,238.188965 
	C1739.056641,238.220215 1739.462769,238.179794 1739.665405,238.156158 
	C1778.810303,277.093781 1817.752319,316.055115 1856.694702,355.016205 
	C1857.987915,356.310028 1859.327515,357.561371 1860.557861,358.912292 
	C1861.164795,359.578613 1862.335693,360.110962 1861.732056,361.338440 
	C1861.267090,362.283966 1860.284424,361.896637 1859.514282,361.973389 
	C1851.454956,362.776581 1844.975098,360.881775 1838.806396,354.600037 
	C1803.470947,318.617554 1767.652954,283.108795 1731.775635,247.161011 
	C1731.398438,242.257370 1733.042114,240.128433 1738.672852,238.188965 
z"/>
<path fill="#DA6C37" opacity="1.000000" stroke="none" 
	d="
M1533.340820,376.715698 
	C1529.776733,377.165497 1528.249756,374.723358 1526.411621,372.886749 
	C1484.860718,331.369293 1443.335571,289.826080 1401.777832,248.315628 
	C1400.056641,246.596420 1398.684692,244.284470 1395.513794,244.018448 
	C1395.117065,239.302979 1395.070557,234.610260 1395.095215,229.455750 
	C1397.399292,229.431702 1398.832520,230.855850 1400.411621,232.466583 
	C1406.879150,239.063980 1413.670532,245.342575 1420.206177,251.875061 
	C1426.981079,258.646698 1433.539551,265.634583 1440.301392,272.419647 
	C1446.707275,278.847534 1453.277466,285.111328 1459.732178,291.491028 
	C1466.314331,297.996887 1472.845337,304.554443 1479.395874,311.092224 
	C1486.281982,317.964752 1493.194214,324.811462 1500.040527,331.723419 
	C1506.782349,338.529938 1513.177979,345.711365 1520.271484,352.124512 
	C1524.058960,355.548615 1526.512329,360.771027 1532.541870,361.966217 
	C1535.645752,366.644989 1536.223022,371.451111 1533.340820,376.715698 
z"/>
<path fill="#838487" opacity="1.000000" stroke="none" 
	d="
M1700.660767,276.180847 
	C1701.045410,276.210266 1701.459106,276.170532 1701.665283,276.145142 
	C1739.094482,313.365387 1776.326904,350.601654 1813.505127,387.891907 
	C1814.928467,389.319489 1817.725098,390.422211 1816.854736,392.946991 
	C1815.752808,396.143799 1813.928955,399.098480 1812.332520,402.113068 
	C1811.961548,402.813538 1811.253052,402.683197 1810.692627,402.131561 
	C1809.980469,401.430542 1809.254883,400.743073 1808.548462,400.036346 
	C1770.371094,361.847656 1732.195190,323.657562 1693.802856,285.187073 
	C1693.370483,280.296600 1695.008179,278.153229 1700.660767,276.180847 
z"/>
<path fill="#828386" opacity="1.000000" stroke="none" 
	d="
M1713.747070,263.755859 
	C1723.469727,273.087036 1732.846802,282.282990 1742.141479,291.561584 
	C1767.935791,317.311859 1793.696411,343.095856 1819.468262,368.868500 
	C1823.262939,372.663269 1823.516602,380.332642 1820.215698,384.654694 
	C1819.469238,385.632050 1819.134399,385.576569 1818.446533,384.941986 
	C1817.713135,384.265289 1817.021484,383.543457 1816.315430,382.837341 
	C1779.602539,346.118958 1742.890015,309.400208 1706.034912,272.377838 
	C1706.003052,267.435394 1708.300659,264.847443 1713.747070,263.755859 
z"/>
<path fill="#838487" opacity="1.000000" stroke="none" 
	d="
M1718.406982,260.062775 
	C1718.140015,259.868652 1718.184570,259.463623 1718.199219,259.260437 
	C1719.155029,254.213257 1721.273438,252.134644 1726.519775,251.401291 
	C1762.005005,286.646637 1797.133545,321.748047 1832.479980,357.100555 
	C1832.759521,357.688690 1832.821533,358.025665 1832.382080,358.248474 
	C1830.885132,358.096771 1829.694946,358.401184 1828.925903,357.964447 
	C1824.962769,355.713715 1824.545044,358.605316 1824.033081,361.241089 
	C1823.823608,362.319122 1823.998535,363.471802 1823.998535,365.245361 
	C1788.575195,329.935150 1753.624512,295.096008 1718.406982,260.062775 
z"/>
<path fill="#828386" opacity="1.000000" stroke="none" 
	d="
M1820.203979,82.796432 
	C1814.617432,77.296043 1809.280762,72.045609 1803.924194,66.775520 
	C1804.445312,66.129425 1804.667847,65.643089 1805.045898,65.415657 
	C1814.347290,59.822159 1814.349976,59.827263 1822.195435,67.673233 
	C1851.871460,97.350586 1881.559326,127.016365 1911.178833,156.750031 
	C1912.267944,157.843384 1914.709106,158.498138 1913.469238,161.039948 
	C1911.967285,164.119278 1910.664795,167.460281 1907.810913,169.425552 
	C1906.604126,170.256424 1905.519775,168.066864 1904.559570,167.108810 
	C1878.975220,141.583344 1853.427246,116.021355 1827.872925,90.465538 
	C1825.400024,87.992401 1822.927002,85.519402 1820.203979,82.796432 
z"/>
<path fill="#FDD61D" opacity="1.000000" stroke="none" 
	d="
M1815.091187,152.866776 
	C1815.157837,153.210571 1815.181274,153.542908 1815.242188,153.697449 
	C1814.603638,155.322372 1813.904175,156.792725 1813.049072,158.581970 
	C1809.602905,160.035980 1807.986938,157.471252 1806.188110,155.674942 
	C1792.979248,142.485245 1779.738525,129.327438 1766.555420,116.111961 
	C1762.253418,111.799347 1762.236572,111.815247 1756.982422,115.310135 
	C1755.994141,115.967545 1754.971436,116.502083 1753.384766,116.193123 
	C1745.715942,108.621399 1738.749146,100.734055 1730.947998,93.783096 
	C1723.701782,87.326523 1718.064453,79.216385 1709.848145,73.786270 
	C1707.300293,72.102386 1706.135254,68.581032 1702.235596,68.027573 
	C1707.790283,62.740540 1714.468140,58.935440 1722.539062,56.941116 
	C1729.012939,60.211292 1732.978760,65.904015 1737.738281,70.612114 
	C1746.872314,79.647423 1756.091919,88.618301 1764.912109,97.975037 
	C1765.944702,99.070465 1766.970337,100.123146 1767.650879,101.878693 
	C1769.044922,104.608665 1770.996460,106.432007 1772.870239,108.318451 
	C1785.529297,121.062836 1798.281372,133.714294 1810.981689,146.417435 
	C1812.742065,148.178253 1814.679077,149.824310 1815.091187,152.866776 
z"/>
<path fill="#BF402E" opacity="1.000000" stroke="none" 
	d="
M1430.074951,362.453308 
	C1432.695312,358.857910 1434.121582,361.665955 1435.615234,363.153229 
	C1450.371460,377.846771 1465.083984,392.584045 1479.808960,407.308929 
	C1489.821899,417.321838 1499.854004,427.315735 1509.824463,437.370789 
	C1511.131592,438.688934 1513.337158,439.725098 1512.146729,442.575378 
	C1505.264038,442.748322 1498.470703,443.801819 1491.381836,442.035370 
	C1487.678955,439.908264 1484.825562,437.430023 1482.115723,434.701752 
	C1466.318115,418.796204 1450.424805,402.985870 1434.601440,387.105774 
	C1433.767822,386.269165 1433.052368,385.378754 1431.474121,385.095764 
	C1429.455933,377.682404 1430.074829,370.283478 1430.074951,362.453308 
z"/>
<path fill="#7E5219" opacity="1.000000" stroke="none" 
	d="
M1691.134399,358.909637 
	C1662.901611,330.812500 1634.951538,302.793915 1606.998535,274.778473 
	C1600.917358,268.683838 1600.912109,268.689026 1606.840698,262.291260 
	C1608.714355,260.611572 1610.221558,260.743073 1611.718994,262.449799 
	C1613.032837,263.947510 1614.532593,265.281738 1615.943726,266.694763 
	C1647.104004,297.898071 1678.263306,329.102356 1709.570801,360.580780 
	C1705.346680,364.275696 1700.790039,362.121643 1696.339111,361.159485 
	C1695.141602,360.900543 1693.967407,360.091522 1692.396362,359.293945 
	C1691.800903,359.054474 1691.608521,359.021881 1691.134399,358.909637 
z"/>
<path fill="#806507" opacity="1.000000" stroke="none" 
	d="
M1752.069336,225.702194 
	C1749.479248,228.460251 1746.876465,231.023453 1744.061768,233.856400 
	C1743.849976,234.126144 1743.495850,234.097931 1743.318359,234.105576 
	C1732.380005,222.053421 1720.521606,211.071960 1709.154297,199.609711 
	C1688.385132,178.666977 1667.447876,157.890961 1646.679810,136.947067 
	C1645.910522,136.171112 1642.448853,135.512390 1645.713867,133.153305 
	C1646.623657,133.310547 1647.269287,133.731598 1647.880737,133.686966 
	C1658.918823,132.880936 1666.047729,139.045792 1673.287109,146.446289 
	C1699.087646,172.820831 1725.382446,198.711823 1751.788940,224.951996 
	C1752.087769,225.118042 1752.056763,225.507324 1752.069336,225.702194 
z"/>
<path fill="#838487" opacity="1.000000" stroke="none" 
	d="
M1837.257568,73.742096 
	C1831.556030,68.033333 1826.104492,62.574543 1820.652954,57.115749 
	C1820.851685,56.742088 1821.050537,56.368423 1821.249268,55.994762 
	C1825.999634,55.994762 1830.750610,56.039818 1835.500000,55.969833 
	C1837.119141,55.945976 1837.801270,57.161037 1838.692261,58.050743 
	C1865.456909,84.779015 1892.203003,111.526093 1918.936768,138.285385 
	C1921.210693,140.561584 1920.282715,150.751205 1917.748291,152.548050 
	C1916.804810,153.217026 1916.244873,152.652390 1915.656128,152.093842 
	C1914.689331,151.176865 1913.748291,150.232437 1912.806030,149.290131 
	C1887.705688,124.191612 1862.606812,99.091721 1837.257568,73.742096 
z"/>
<path fill="#828386" opacity="1.000000" stroke="none" 
	d="
M1651.470947,353.635437 
	C1652.077759,353.899292 1652.272827,353.954285 1652.760498,354.090088 
	C1675.824097,377.037811 1698.583252,399.916321 1721.373291,422.764252 
	C1727.813599,429.220703 1734.343018,435.588074 1741.888550,443.040375 
	C1732.020630,442.525818 1724.079834,443.121674 1716.973511,435.809479 
	C1689.719849,407.766327 1661.834717,380.336731 1634.049316,352.371674 
	C1638.351440,347.782684 1643.021240,351.074219 1647.560303,351.769531 
	C1648.731567,351.948944 1649.879761,352.881012 1651.470947,353.635437 
z"/>
<path fill="#FCDD25" opacity="1.000000" stroke="none" 
	d="
M1766.322266,103.180283 
	C1765.312744,99.632652 1762.073608,98.226219 1760.051392,96.012459 
	C1753.981323,89.367401 1747.062988,83.506676 1740.766968,77.055763 
	C1735.263672,71.416962 1729.944458,65.606468 1724.073120,60.331902 
	C1723.427979,59.752445 1723.343750,58.548740 1722.963867,57.266121 
	C1726.763794,54.989010 1730.846191,56.273712 1734.804321,56.053467 
	C1739.216553,55.807957 1743.653442,56.005226 1748.542969,56.086842 
	C1753.451782,58.303032 1756.574219,62.013760 1759.948486,65.415314 
	C1767.073242,72.597511 1774.328003,79.651947 1781.441162,87.335884 
	C1781.992676,90.716629 1783.514526,93.063751 1785.738403,95.249382 
	C1795.303711,104.649544 1804.656250,114.265717 1814.249512,123.637917 
	C1816.670654,126.003273 1818.654175,128.548187 1819.829590,132.099945 
	C1819.940796,132.429504 1819.967285,132.698563 1820.068726,132.787735 
	C1819.801880,134.949081 1820.446899,137.214417 1818.919434,139.470581 
	C1815.572876,141.052902 1813.986450,138.455841 1812.210815,136.689911 
	C1801.252197,125.791542 1790.325928,114.860413 1779.386353,103.942757 
	C1774.831665,99.397339 1774.828491,99.402832 1769.471191,102.643585 
	C1768.601562,103.169579 1767.681519,103.518280 1766.322266,103.180283 
z"/>
<path fill="#828386" opacity="1.000000" stroke="none" 
	d="
M1679.950439,356.825897 
	C1680.832397,357.310974 1681.307983,357.567322 1682.028931,357.939972 
	C1682.754028,359.977295 1684.468994,360.893372 1685.718750,362.146179 
	C1710.077026,386.564178 1734.465088,410.952667 1758.875732,435.318420 
	C1760.155762,436.595947 1761.689941,437.618835 1763.146729,438.793182 
	C1759.937378,441.598572 1756.501831,441.003113 1753.511353,441.862000 
	C1750.930908,442.603088 1748.281128,442.050171 1745.906982,439.655121 
	C1718.111084,411.614716 1690.168945,383.719421 1662.115967,355.495728 
	C1665.792114,351.789764 1670.010498,354.041107 1674.041382,354.504974 
	C1675.951782,354.724823 1677.733276,355.822968 1679.950439,356.825897 
z"/>
<path fill="#826707" opacity="1.000000" stroke="none" 
	d="
M1764.966797,213.325897 
	C1762.181396,215.943512 1759.491943,218.349899 1756.511963,220.901398 
	C1752.509521,217.467972 1748.742676,213.944412 1745.094604,210.301956 
	C1722.223633,187.466599 1699.377563,164.606354 1676.530396,141.747345 
	C1675.268799,140.485092 1674.069702,139.160339 1673.071289,137.401382 
	C1681.348999,138.276245 1689.585938,137.271301 1696.505859,144.436798 
	C1717.218140,165.884018 1738.538574,186.743988 1759.639771,207.814987 
	C1761.164062,209.337143 1762.835205,210.712387 1764.797729,212.171875 
	C1765.168335,212.501099 1765.136841,212.810043 1764.966797,213.325897 
z"/>
<path fill="#7C4F1C" opacity="1.000000" stroke="none" 
	d="
M1680.154785,356.760437 
	C1674.423950,357.164673 1668.626953,355.992676 1662.378540,355.199402 
	C1661.787354,355.157623 1661.608154,355.109589 1661.164551,354.974152 
	C1659.602051,353.399872 1658.385132,351.831909 1656.993774,350.438171 
	C1635.299316,328.709229 1613.566162,307.018860 1591.906860,285.255127 
	C1590.471313,283.812805 1587.515259,282.641418 1589.841309,279.314209 
	C1596.123535,272.540009 1596.130737,272.532837 1602.833618,279.243378 
	C1628.542480,304.981659 1654.246704,330.724854 1680.154785,356.760437 
z"/>
<path fill="#838487" opacity="1.000000" stroke="none" 
	d="
M1692.117676,359.391052 
	C1697.636597,359.701477 1703.279907,360.315918 1709.321045,360.892700 
	C1709.937622,360.922180 1710.156372,360.989258 1710.708252,361.137573 
	C1733.362915,383.588684 1755.685303,405.957733 1778.004883,428.329498 
	C1781.345825,431.678253 1780.904663,432.915405 1776.599487,434.932983 
	C1771.650391,437.252197 1768.404297,436.214264 1764.457275,432.184509 
	C1740.592163,407.818909 1716.354858,383.817902 1692.117676,359.391052 
z"/>
<path fill="#86868A" opacity="1.000000" stroke="none" 
	d="
M1624.684326,352.165894 
	C1625.062012,352.192719 1625.465332,352.160004 1625.666382,352.139465 
	C1654.023315,380.120636 1682.179199,408.122406 1710.335083,436.124146 
	C1710.053223,436.498474 1709.771362,436.872803 1709.489380,437.247131 
	C1704.163940,435.517090 1699.227905,432.871857 1694.452148,429.947876 
	C1685.872070,424.694672 1678.520630,418.032745 1672.498169,409.967499 
	C1671.558960,408.709595 1671.000244,406.989838 1669.457397,409.083344 
	C1666.970581,412.457886 1665.451904,410.132660 1663.682129,408.360107 
	C1648.168091,392.821442 1632.636108,377.300751 1616.960815,361.474640 
	C1616.594360,355.910065 1620.028198,353.674377 1624.684326,352.165894 
z"/>
<path fill="#828386" opacity="1.000000" stroke="none" 
	d="
M1912.739502,124.260742 
	C1890.129150,101.660400 1867.768799,79.310158 1844.462402,56.014183 
	C1850.605713,56.014183 1855.637329,56.011406 1860.669067,56.015835 
	C1862.224121,56.017200 1862.912231,57.336716 1863.809814,58.231804 
	C1882.787109,77.158974 1901.717163,96.133644 1920.718872,115.036407 
	C1922.369995,116.678894 1923.155151,118.306229 1923.047852,120.673203 
	C1922.854614,124.931648 1922.993164,129.205154 1922.993164,134.664764 
	C1919.161011,130.775116 1916.075195,127.642982 1912.739502,124.260742 
z"/>
<path fill="#7C4D1F" opacity="1.000000" stroke="none" 
	d="
M1651.738037,353.562103 
	C1646.184937,353.238983 1640.486938,352.633636 1634.351196,352.046722 
	C1633.112671,351.754639 1632.312012,351.444122 1631.207275,351.006012 
	C1622.635376,342.446899 1614.403687,333.979675 1606.090088,325.593414 
	C1596.707642,316.128937 1587.347656,306.638214 1577.765625,297.378387 
	C1575.097656,294.800232 1574.685303,292.954346 1577.882568,290.419250 
	C1584.516602,286.086304 1584.516235,286.086670 1590.064453,291.644409 
	C1610.573975,312.189697 1631.083740,332.734741 1651.738037,353.562103 
z"/>
<path fill="#826707" opacity="1.000000" stroke="none" 
	d="
M1776.870117,199.921371 
	C1774.653809,202.901138 1772.261841,205.582947 1769.704834,208.568054 
	C1769.268677,209.037140 1768.974121,209.127701 1768.421875,209.150955 
	C1767.870972,206.745697 1765.789185,205.648666 1764.316284,204.164139 
	C1743.435303,183.119156 1722.506958,162.121292 1701.391357,140.770172 
	C1701.376343,140.520309 1701.559937,140.612289 1701.543091,140.470367 
	C1715.064087,139.488068 1724.650269,146.164612 1733.617676,156.046997 
	C1747.330322,171.158936 1762.273682,185.154129 1776.870117,199.921371 
z"/>
<path fill="#FEE931" opacity="1.000000" stroke="none" 
	d="
M1781.127319,88.045700 
	C1777.260986,86.865204 1775.316650,83.871155 1772.893555,81.423683 
	C1766.135376,74.597649 1759.312500,67.835754 1752.541016,61.022762 
	C1751.270752,59.744862 1749.736572,58.655060 1749.080322,56.488792 
	C1755.121094,56.108208 1761.299194,55.481083 1767.333618,56.150730 
	C1773.922119,56.881851 1779.655640,60.544964 1785.283813,63.888599 
	C1789.129517,66.173325 1792.585205,69.114464 1796.500732,71.943512 
	C1796.786377,72.124886 1796.823486,72.543793 1796.814087,72.753860 
	C1797.005371,74.166656 1796.785767,75.322205 1796.053223,76.262436 
	C1794.419312,78.359673 1795.403076,79.891212 1796.946655,81.426628 
	C1800.582397,85.043060 1804.158691,88.721634 1807.854858,92.274452 
	C1810.987061,95.285240 1813.642456,98.611496 1815.798706,102.770996 
	C1816.004639,103.047157 1816.020142,102.985260 1815.988525,102.980652 
	C1816.123901,103.134949 1816.290894,103.293869 1816.632812,103.750832 
	C1817.117920,104.618355 1817.427856,105.187828 1817.889282,106.045883 
	C1817.365967,108.739304 1819.437378,110.759254 1818.957520,113.530334 
	C1815.851440,115.176201 1814.331909,112.748901 1812.645874,111.100395 
	C1806.346558,104.941467 1800.076904,98.747749 1793.947510,92.421059 
	C1790.437256,88.797661 1787.185913,85.070908 1781.127319,88.045700 
z"/>
<path fill="#7F5D0F" opacity="1.000000" stroke="none" 
	d="
M1714.113037,263.676208 
	C1711.523438,266.415833 1708.916626,268.978302 1706.101074,271.807434 
	C1705.892212,272.074127 1705.452515,272.048065 1705.233398,272.024506 
	C1695.424316,262.579346 1685.809814,253.182404 1676.252197,243.728119 
	C1668.926270,236.481293 1661.807983,229.018036 1654.319824,221.944839 
	C1651.258667,219.053497 1650.396240,216.952698 1654.215820,214.237061 
	C1655.548462,213.289688 1656.567749,211.901810 1657.884277,210.426178 
	C1660.701294,209.446396 1661.923096,211.535172 1663.398682,213.002655 
	C1680.102173,229.614166 1696.780640,246.250778 1713.786133,263.011963 
	C1714.106323,263.143280 1714.095947,263.499054 1714.113037,263.676208 
z"/>
<path fill="#7E4C22" opacity="1.000000" stroke="none" 
	d="
M1624.883789,351.894958 
	C1622.451294,355.001678 1619.840576,357.810699 1617.021118,360.897156 
	C1616.812256,361.174591 1616.485718,361.142273 1616.321777,361.135437 
	C1614.915894,358.483002 1612.523926,356.844421 1610.552979,354.862579 
	C1596.248901,340.479553 1581.871826,326.169312 1567.550537,311.803375 
	C1561.602173,305.836334 1562.243530,307.387787 1567.318481,302.048218 
	C1567.776245,301.566498 1568.219971,301.071442 1568.822632,300.288177 
	C1570.804565,297.725067 1572.175537,298.869110 1573.749268,300.453430 
	C1590.709717,317.526123 1607.713501,334.555786 1624.883789,351.894958 
z"/>
<path fill="#7F5A12" opacity="1.000000" stroke="none" 
	d="
M1688.985596,289.357849 
	C1685.634888,291.334320 1683.691040,294.583160 1680.503174,296.900269 
	C1662.736084,279.682709 1645.249023,262.318176 1627.799438,244.915955 
	C1627.268555,244.386337 1627.130249,243.462845 1626.785889,242.354309 
	C1627.281616,241.589325 1627.774414,241.151733 1628.323853,240.803833 
	C1630.696411,239.301529 1632.261475,235.185898 1634.623169,235.772079 
	C1637.296753,236.435669 1639.397339,239.626709 1641.622192,241.844131 
	C1655.761475,255.936554 1669.859375,270.070526 1683.993652,284.168121 
	C1685.398193,285.569153 1686.954346,286.818268 1688.798584,288.162292 
	C1689.166138,288.506775 1689.137939,288.823456 1688.985596,289.357849 
z"/>
<path fill="#816309" opacity="1.000000" stroke="none" 
	d="
M1738.879639,237.922089 
	C1736.661499,240.903656 1734.266357,243.587128 1731.711792,246.576721 
	C1731.275513,247.042221 1730.977661,247.128983 1730.422607,247.151245 
	C1729.949341,244.919174 1728.044067,243.890305 1726.687134,242.527481 
	C1711.115967,226.889389 1695.501831,211.294022 1679.887939,195.698547 
	C1678.243042,194.055496 1676.110840,192.550201 1679.181519,189.971390 
	C1685.547974,184.327133 1685.555298,184.319839 1691.453003,190.232574 
	C1707.206543,206.026001 1722.953369,221.826355 1738.879639,237.922089 
z"/>
<path fill="#784620" opacity="1.000000" stroke="none" 
	d="
M1556.144531,312.988190 
	C1558.676392,310.257446 1560.018311,312.409851 1561.498047,313.889374 
	C1576.985962,329.373779 1592.463867,344.868256 1607.969604,360.334778 
	C1609.367920,361.729370 1610.941528,362.948029 1612.800171,364.230164 
	C1613.194580,364.531525 1613.176758,364.848602 1613.040771,365.390717 
	C1611.730591,369.726196 1609.171875,372.445923 1604.499756,373.257599 
	C1586.909546,356.085602 1569.701172,338.969391 1552.438599,321.907898 
	C1550.535156,320.026764 1550.853149,318.535858 1552.554688,316.865692 
	C1553.739258,315.703064 1554.842529,314.457489 1556.144531,312.988190 
z"/>
<path fill="#7F5A12" opacity="1.000000" stroke="none" 
	d="
M1700.873047,275.910034 
	C1698.658569,278.901978 1696.271606,281.593597 1693.735596,284.595886 
	C1693.297363,285.052429 1692.990845,285.131500 1692.426758,285.151062 
	C1691.929932,282.927124 1690.039795,281.883881 1688.679199,280.517242 
	C1673.681396,265.453125 1658.637939,250.434372 1643.607178,235.403229 
	C1638.818970,230.614975 1638.821289,230.616791 1643.633789,225.756256 
	C1644.334106,225.048721 1645.005005,224.311859 1645.839355,223.293091 
	C1648.003906,222.379196 1649.062256,223.838821 1650.217163,224.995529 
	C1667.051758,241.860123 1683.874756,258.736359 1700.873047,275.910034 
z"/>
<path fill="#816309" opacity="1.000000" stroke="none" 
	d="
M1726.970215,251.331726 
	C1724.181763,253.950485 1721.487183,256.355743 1718.503174,258.909119 
	C1700.926025,241.898239 1683.664185,224.712845 1666.325439,207.605347 
	C1663.309326,204.629379 1666.367310,203.395157 1667.834717,201.283051 
	C1671.513306,196.499054 1674.100098,198.015472 1677.581787,201.597977 
	C1692.196655,216.637314 1707.143677,231.354385 1721.990601,246.167770 
	C1723.396118,247.570221 1724.953003,248.821075 1726.798218,250.164246 
	C1727.165649,250.500839 1727.134766,250.811508 1726.970215,251.331726 
z"/>
<path fill="#7E5219" opacity="1.000000" stroke="none" 
	d="
M1676.122803,301.681213 
	C1673.531738,304.420624 1670.920654,306.983154 1668.102295,309.813904 
	C1667.894897,310.082062 1667.504395,310.058685 1667.309448,310.074158 
	C1650.940308,293.798523 1634.771240,277.502350 1618.588989,261.219330 
	C1613.729736,256.329895 1614.564819,251.669296 1620.838989,248.658844 
	C1623.312866,247.471832 1624.084106,249.768585 1625.212402,250.888474 
	C1640.685303,266.245697 1656.080811,281.680725 1671.502686,297.089294 
	C1672.796387,298.381866 1674.142822,299.621399 1675.785156,301.017029 
	C1676.105469,301.148560 1676.103027,301.504395 1676.122803,301.681213 
z"/>
<path fill="#826707" opacity="1.000000" stroke="none" 
	d="
M1790.060059,187.691940 
	C1787.469971,190.451279 1784.870239,193.018341 1782.059814,195.856094 
	C1781.848999,196.126770 1781.496216,196.098099 1781.319458,196.106796 
	C1775.567261,189.263855 1768.909546,183.460678 1762.738159,177.188934 
	C1752.583252,166.868790 1742.442017,156.524811 1731.962769,146.539551 
	C1728.248901,143.000702 1727.538574,140.473083 1731.975464,137.393585 
	C1732.643799,136.929764 1733.128662,136.201614 1733.848877,135.298981 
	C1736.606323,132.920303 1737.854370,135.268692 1739.288940,136.697632 
	C1756.036743,153.378632 1772.761230,170.083115 1789.789673,186.948883 
	C1790.087524,187.116409 1790.050293,187.499664 1790.060059,187.691940 
z"/>
<path fill="#816D0E" opacity="1.000000" stroke="none" 
	d="
M1753.178711,116.398979 
	C1753.309448,115.899651 1753.593506,115.721802 1753.831543,115.495506 
	C1761.558472,108.149963 1761.546997,108.159912 1769.283569,115.875946 
	C1783.605347,130.159821 1797.941040,144.429703 1812.582275,158.803085 
	C1812.893433,158.900833 1813.063843,159.341003 1813.083496,159.575989 
	C1811.104370,163.002930 1809.105591,166.194870 1806.956055,169.702454 
	C1806.805420,170.018127 1806.463623,170.068802 1806.291748,170.086334 
	C1792.232666,156.089218 1778.341797,142.078339 1764.461060,128.057327 
	C1760.728149,124.286720 1757.026611,120.485153 1753.178711,116.398979 
z"/>
<path fill="#764120" opacity="1.000000" stroke="none" 
	d="
M1544.293091,327.192627 
	C1546.042847,323.559601 1547.705933,325.286835 1549.323120,326.899231 
	C1555.796143,333.352570 1562.245483,339.829559 1568.721069,346.280243 
	C1578.963257,356.482666 1589.219360,366.671021 1599.785889,377.004364 
	C1600.102173,377.143372 1600.098999,377.496826 1600.112549,377.673035 
	C1599.449341,382.243195 1596.672607,384.712738 1592.265381,386.049805 
	C1591.897217,386.074097 1591.503784,386.052734 1591.307617,386.070618 
	C1576.098633,370.950867 1561.078125,355.820892 1546.076660,340.672272 
	C1539.201538,333.729767 1539.780396,335.622406 1544.293091,327.192627 
z"/>
<path fill="#BA362D" opacity="1.000000" stroke="none" 
	d="
M1431.224243,385.337646 
	C1432.426270,383.342133 1433.657227,383.127289 1435.241943,384.725006 
	C1453.626343,403.261139 1472.048340,421.760071 1490.448120,440.281158 
	C1490.665527,440.500000 1490.720947,440.879669 1490.929199,441.508087 
	C1482.587280,441.639404 1475.140625,438.160370 1467.998779,434.323395 
	C1455.600952,427.662689 1446.004150,417.991699 1439.034058,405.667023 
	C1435.465454,399.356781 1433.236328,392.611084 1431.224243,385.337646 
z"/>
<path fill="#828386" opacity="1.000000" stroke="none" 
	d="
M1604.126709,373.342590 
	C1606.862915,370.747528 1609.592041,368.309174 1612.644775,365.744507 
	C1629.460938,382.295013 1645.953491,398.971802 1662.627563,415.832123 
	C1659.993652,418.254730 1657.088623,420.926727 1654.240234,423.546661 
	C1637.916626,407.292358 1621.296387,390.742584 1604.404297,374.002869 
	C1604.132690,373.812897 1604.119507,373.499329 1604.126709,373.342590 
z"/>
<path fill="#828386" opacity="1.000000" stroke="none" 
	d="
M1592.038818,386.378296 
	C1594.458008,383.471191 1597.018799,380.868256 1599.852783,378.057190 
	C1616.500854,394.581604 1632.875488,411.314148 1649.124756,427.918488 
	C1646.376465,429.585724 1643.040771,433.913330 1639.634888,433.294434 
	C1636.376099,432.702332 1633.779419,428.280640 1630.963501,425.470337 
	C1618.022095,412.554871 1605.105713,399.614227 1592.038818,386.378296 
z"/>
<path fill="#817112" opacity="1.000000" stroke="none" 
	d="
M1766.033691,103.365868 
	C1766.285156,102.839966 1766.592773,102.693031 1766.832642,102.472298 
	C1774.250122,95.649300 1774.244629,95.652802 1781.558350,102.953506 
	C1793.793945,115.167229 1806.035889,127.374527 1818.562988,139.723526 
	C1818.907959,140.044540 1818.965088,140.226578 1819.083252,140.688538 
	C1818.237183,144.944489 1817.522217,148.978210 1815.397949,152.935974 
	C1799.006714,137.151291 1782.853638,121.093872 1766.718872,105.018234 
	C1766.390503,104.690926 1766.273682,104.151169 1766.033691,103.365868 
z"/>
<path fill="#733D1E" opacity="1.000000" stroke="none" 
	d="
M1578.322021,399.135834 
	C1573.882202,393.339081 1568.316040,388.779022 1563.328369,383.670898 
	C1555.180420,375.326202 1547.072876,366.920135 1538.523315,358.998657 
	C1534.527832,355.296570 1533.227417,351.706024 1535.398071,346.788422 
	C1535.797363,345.883942 1535.952637,344.871704 1536.309082,343.525909 
	C1538.565430,339.764313 1539.707153,343.032501 1540.722900,344.040009 
	C1556.029541,359.222015 1571.244141,374.496948 1586.699707,390.010010 
	C1586.886230,395.245636 1583.736450,397.605164 1579.163818,399.122498 
	C1578.799561,399.168701 1578.481323,399.145172 1578.322021,399.135834 
z"/>
<path fill="#838487" opacity="1.000000" stroke="none" 
	d="
M1578.947754,399.468933 
	C1581.422607,396.392822 1584.045532,393.616943 1586.793701,390.555511 
	C1587.087158,390.241058 1587.255249,390.212128 1587.675293,390.139313 
	C1587.934814,392.236694 1589.710815,393.187561 1590.955322,394.437225 
	C1604.122925,407.658051 1617.283081,420.886993 1630.557495,434.000092 
	C1633.103394,436.515228 1632.399658,436.912262 1629.428223,438.176575 
	C1623.013062,440.906158 1618.513672,439.881744 1613.573242,434.535309 
	C1602.503418,422.556030 1590.637451,411.312378 1578.947754,399.468933 
z"/>
<path fill="#6F381D" opacity="1.000000" stroke="none" 
	d="
M1533.025024,377.321411 
	C1532.907715,372.298187 1532.901733,367.601105 1532.905029,362.434998 
	C1539.531006,367.061310 1544.813110,373.542389 1550.846191,379.244781 
	C1558.820923,386.782623 1565.996582,395.142792 1574.801758,402.208252 
	C1575.190918,402.530884 1575.174561,402.846741 1575.048584,403.388000 
	C1573.733765,407.720154 1571.173706,410.443665 1566.502197,411.263000 
	C1554.921143,400.222351 1543.305542,389.646332 1533.025024,377.321411 
z"/>
<path fill="#827618" opacity="1.000000" stroke="none" 
	d="
M1780.698242,88.301941 
	C1787.269287,83.083496 1787.258301,83.094528 1793.176880,88.971489 
	C1801.529541,97.265457 1809.900269,105.541092 1818.592285,113.876801 
	C1819.244141,114.356697 1819.566772,114.784416 1819.997803,115.461121 
	C1820.098511,120.949631 1820.090942,126.189148 1820.012085,131.929077 
	C1806.862427,119.453995 1793.816528,106.445259 1780.668945,93.540337 
	C1778.778442,91.684753 1778.799316,90.284622 1780.698242,88.301941 
z"/>
<path fill="#828386" opacity="1.000000" stroke="none" 
	d="
M1566.129639,411.347107 
	C1568.864746,408.745117 1571.593994,406.297363 1574.651367,403.732605 
	C1587.082886,415.890167 1599.186035,428.164795 1611.876343,441.034912 
	C1606.451904,441.034912 1601.553711,440.985870 1596.657349,441.062653 
	C1595.040161,441.088013 1594.357666,439.915741 1593.458618,439.017395 
	C1584.518921,430.085907 1575.601440,421.132263 1566.403076,411.997406 
	C1566.128296,411.809967 1566.123657,411.501312 1566.129639,411.347107 
z"/>
<path fill="#86868A" opacity="1.000000" stroke="none" 
	d="
M1912.670654,99.334610 
	C1898.313965,85.011292 1884.207642,70.939240 1869.713013,56.479839 
	C1876.019897,54.906044 1880.813354,57.479588 1885.299316,60.090805 
	C1898.952637,68.038429 1909.592529,78.850182 1916.238770,93.444405 
	C1918.091309,97.512329 1919.196411,101.700363 1920.744385,105.800056 
	C1920.243530,106.217194 1919.742554,106.634338 1919.241577,107.051483 
	C1917.134766,104.562943 1915.027954,102.074402 1912.670654,99.334610 
z"/>
<path fill="#6F381D" opacity="1.000000" stroke="none" 
	d="
M1546.248047,411.032593 
	C1542.478149,404.798676 1538.281494,399.039001 1537.236328,391.232452 
	C1545.315186,399.127319 1553.394165,407.022217 1561.799316,415.041809 
	C1562.125732,415.166565 1562.138672,415.488617 1562.151001,415.649292 
	C1561.886353,419.094055 1560.275269,421.121582 1556.468506,421.426880 
	C1553.930908,419.358856 1551.780029,417.309357 1549.355957,415.068054 
	C1548.008179,414.816132 1547.633545,414.003998 1547.187134,412.861755 
	C1546.890015,412.087769 1546.671509,411.636566 1546.248047,411.032593 
z"/>
<path fill="#86868A" opacity="1.000000" stroke="none" 
	d="
M1556.099487,421.487366 
	C1557.928345,419.683441 1559.774780,417.958466 1561.892212,416.021790 
	C1568.887817,422.865082 1575.612549,429.920044 1582.515869,437.162598 
	C1572.411255,434.666931 1564.315186,428.825134 1556.420166,421.923889 
	C1556.139648,421.726532 1556.117188,421.566284 1556.099487,421.487366 
z"/>
<path fill="#A0A0A2" opacity="1.000000" stroke="none" 
	d="
M585.565796,211.328995 
	C585.966125,254.081421 585.972534,297.001556 585.969116,340.379822 
	C584.196777,340.082764 585.045593,338.521667 585.044250,337.374298 
	C584.995178,295.910431 585.005798,254.446518 585.016052,212.982605 
	C585.016174,212.487289 585.117737,211.992004 585.565796,211.328995 
z"/>
<path fill="#A0A0A2" opacity="1.000000" stroke="none" 
	d="
M944.396851,339.902374 
	C944.030579,297.463226 944.025757,254.770813 944.030884,211.620270 
	C945.800598,211.913300 944.954651,213.471268 944.956055,214.615433 
	C945.006714,255.637207 944.998291,296.659088 944.986084,337.680939 
	C944.985901,338.337006 944.837524,338.993042 944.396851,339.902374 
z"/>
<path fill="#F3933C" opacity="1.000000" stroke="none" 
	d="
M284.927002,238.509995 
	C286.633026,239.848969 286.015656,242.125244 286.020111,244.219498 
	C286.088104,276.132904 286.109955,308.046417 286.192932,340.418884 
	C283.818146,339.888733 285.044830,337.770538 285.040588,336.258850 
	C284.949707,303.830627 284.969025,271.402130 284.927002,238.509995 
z"/>
<path fill="#A0A0A2" opacity="1.000000" stroke="none" 
	d="
M1145.398071,339.919373 
	C1145.027832,317.690063 1145.007568,295.199493 1145.018433,272.708954 
	C1145.019043,271.392456 1145.270752,270.076080 1145.624268,268.416534 
	C1145.813721,291.934998 1145.784302,315.796600 1145.398071,339.919373 
z"/>
<path fill="#F3933C" opacity="1.000000" stroke="none" 
	d="
M1500.910767,132.553345 
	C1497.359375,132.938400 1493.583618,132.950760 1489.336914,132.949310 
	C1492.693604,130.921661 1496.732666,132.219543 1500.910767,132.553345 
z"/>
<path fill="#A0A0A2" opacity="1.000000" stroke="none" 
	d="
M491.119141,299.392151 
	C494.319855,299.018524 497.736877,299.014862 501.619263,299.015076 
	C498.619873,300.978088 494.934418,299.743988 491.119141,299.392151 
z"/>
<path fill="#A0A0A2" opacity="1.000000" stroke="none" 
	d="
M663.390564,227.884399 
	C663.014404,225.003021 663.006531,221.906830 663.012939,218.346405 
	C665.019348,221.013977 663.709595,224.392563 663.390564,227.884399 
z"/>
<path fill="#A0A0A2" opacity="1.000000" stroke="none" 
	d="
M1127.934326,209.620575 
	C1126.343628,209.978363 1124.572021,209.983551 1122.357544,209.984863 
	C1123.662720,208.119949 1125.764160,209.154678 1127.934326,209.620575 
z"/>
<path fill="#A0A0A2" opacity="1.000000" stroke="none" 
	d="
M487.890442,318.628235 
	C486.285004,318.842621 484.483490,318.704651 482.371582,318.349243 
	C483.938904,318.179779 485.816620,318.227844 487.890442,318.628235 
z"/>
<path fill="#A0A0A2" opacity="1.000000" stroke="none" 
	d="
M480.062439,402.378510 
	C481.366516,402.161255 482.848999,402.295593 484.632141,402.642853 
	C483.368805,402.813873 481.804810,402.771973 480.062439,402.378510 
z"/>
<path fill="#F3933C" opacity="1.000000" stroke="none" 
	d="
M356.080139,300.393066 
	C357.212646,301.309418 357.008057,302.875214 357.007141,304.784485 
	C355.109650,304.058167 356.314575,302.255707 356.080139,300.393066 
z"/>
<path fill="#F3933C" opacity="1.000000" stroke="none" 
	d="
M422.373474,232.995316 
	C422.147491,231.657745 422.281921,230.130615 422.632263,228.287872 
	C422.810059,229.583420 422.771942,231.194580 422.373474,232.995316 
z"/>
<path fill="#838487" opacity="1.000000" stroke="none" 
	d="
M1832.490723,357.544189 
	C1833.057495,357.783051 1833.972046,358.015045 1833.392334,358.782104 
	C1833.250000,358.970520 1832.538574,358.728943 1831.984863,358.409637 
	C1832.015259,358.001709 1832.149414,357.869202 1832.490723,357.544189 
z"/>
<path fill="#000000" opacity="1.000000" stroke="none" 
	d="
M491.470886,377.306641 
	C486.176147,376.843689 481.473297,376.158813 476.765442,374.356140 
	C466.311920,370.353363 466.104279,358.109467 471.112244,351.547668 
	C474.629211,346.939484 479.331146,344.796692 485.242065,344.949646 
	C492.895996,345.147614 500.562317,344.863190 508.216553,345.055145 
	C511.961761,345.149078 515.756592,345.551788 519.413757,346.345520 
	C525.177185,347.596375 528.414124,351.131287 528.983948,356.028442 
	C529.718994,362.346527 526.897583,368.169189 521.715759,371.018555 
	C514.588196,374.937927 507.011108,377.150330 498.376526,377.108582 
	C495.937469,377.797485 493.898926,377.405518 491.470886,377.306641 
z"/>
<path fill="#000000" opacity="1.000000" stroke="none" 
	d="
M477.188721,246.712402 
	C481.714844,229.847244 498.030121,228.575272 507.771027,233.962265 
	C514.614746,237.747009 518.251526,250.321274 516.697083,258.436218 
	C515.412537,265.142426 513.443359,271.811951 506.476868,274.642975 
	C493.217712,280.031219 476.932526,274.614258 477.037323,256.114960 
	C477.054291,253.119247 477.053894,250.123444 477.188721,246.712402 
z"/>
<path fill="#A0A0A2" opacity="1.000000" stroke="none" 
	d="
M491.356812,377.364929 
	C493.067627,377.118439 495.073914,377.078217 497.505096,377.108521 
	C495.904724,378.387329 493.789459,378.154358 491.356812,377.364929 
z"/>
<path fill="#000000" opacity="1.000000" stroke="none" 
	d="
M1048.302246,281.506500 
	C1047.861084,291.145966 1046.123413,299.918945 1040.724243,307.662689 
	C1037.299194,312.575043 1032.736206,315.484772 1026.330322,316.110809 
	C1023.934998,316.793427 1021.896790,316.407745 1019.469055,316.304443 
	C1006.292236,314.399475 1001.769531,308.294006 998.245605,295.972839 
	C994.444580,282.682648 994.989136,268.901611 998.379089,255.601990 
	C1003.299500,236.298279 1018.972107,231.589722 1034.300781,238.993637 
	C1042.527710,242.967346 1045.213257,251.205231 1046.856323,259.467957 
	C1047.480469,262.605774 1048.700317,265.822784 1048.097656,269.619568 
	C1048.868774,273.716217 1048.363403,277.401917 1048.302246,281.506500 
z"/>
<path fill="#A0A0A2" opacity="1.000000" stroke="none" 
	d="
M1048.366211,281.606232 
	C1048.108398,278.282806 1048.067017,274.624268 1048.093262,270.514343 
	C1049.623657,273.749237 1049.089233,277.510712 1048.366211,281.606232 
z"/>
<path fill="#A0A0A2" opacity="1.000000" stroke="none" 
	d="
M1019.355713,316.360718 
	C1021.066406,316.117157 1023.072693,316.079437 1025.503662,316.112244 
	C1023.901123,317.374512 1021.787537,317.155487 1019.355713,316.360718 
z"/>
<path fill="#000000" opacity="1.000000" stroke="none" 
	d="
M712.450195,311.740234 
	C706.284363,306.246277 705.322510,299.446869 707.433350,292.462250 
	C709.587158,285.335388 715.525696,282.332520 722.566101,280.975586 
	C729.600159,279.619934 736.530762,279.690552 743.561707,280.933075 
	C745.542786,281.283142 746.019897,281.980011 746.012756,283.738525 
	C745.975647,292.894470 745.902710,302.052246 746.058472,311.205688 
	C746.100281,313.666138 744.607483,314.556976 742.920227,314.847412 
	C732.632446,316.618439 722.438416,316.916199 712.450195,311.740234 
z"/>
<path fill="#F38120" opacity="1.000000" stroke="none" 
	d="
M1701.269043,140.410706 
	C1701.192749,140.428329 1701.322632,140.278870 1701.332764,140.257675 
	C1701.342773,140.236481 1701.345459,140.393097 1701.269043,140.410706 
z"/>
<path fill="#D56736" opacity="1.000000" stroke="none" 
	d="
M1547.098877,412.880493 
	C1547.671631,413.138275 1548.234741,413.737579 1548.940308,414.606598 
	C1547.053223,415.970001 1547.206665,414.432861 1547.098877,412.880493 
z"/>
<path fill="#826B0B" opacity="1.000000" stroke="none" 
	d="
M1802.179199,174.591797 
	C1799.847412,177.508987 1797.327759,180.133698 1794.520874,182.908234 
	C1776.984741,165.938461 1759.752930,148.801590 1742.462524,131.723816 
	C1740.585327,129.869614 1740.606445,128.403336 1742.579834,126.804138 
	C1742.836914,126.595688 1743.053833,126.336929 1743.285034,126.097183 
	C1748.490723,120.696144 1748.495728,120.690910 1753.651123,125.855911 
	C1769.766724,142.001465 1785.878174,158.151184 1802.179199,174.591797 
z"/>
<path fill="#827618" opacity="1.000000" stroke="none" 
	d="
M1816.029419,102.659378 
	C1807.722534,95.991554 1800.562744,87.786781 1792.694824,80.308289 
	C1791.305420,78.987679 1791.233032,77.966621 1792.693970,76.707954 
	C1793.939575,75.634865 1795.066162,74.423615 1796.524902,73.118690 
	C1806.229492,80.757309 1812.510254,90.615654 1816.029419,102.659378 
z"/>
<path fill="#827618" opacity="1.000000" stroke="none" 
	d="
M1816.743042,103.815796 
	C1816.478271,103.952644 1816.232422,103.752930 1816.013916,103.212891 
	C1816.294678,103.062759 1816.535034,103.264984 1816.743042,103.815796 
z"/>
</svg>